<?xml version="1.0" encoding="UTF-8" standalone="no"?><svg xmlns="http://www.w3.org/2000/svg" xmlns:xlink="http://www.w3.org/1999/xlink" clip-rule="evenodd" stroke-miterlimit="4.00" viewBox="0 0 720 540"><desc>SVG generated by Keynote</desc><defs></defs><g transform="matrix(1.00, 0.00, -0.00, -1.00, 0.0, 540.0)"><g><clipPath id="clip-35"><path d="M 0.0 540.0 L 720.0 540.0 L 720.0 0.0 L 0.0 0.0 Z M 0.0 540.0 "></path></clipPath><g clip-path="url(#clip-35)"><image xlink:href="../../9F71FDD0-7D0B-48C6-983A-900A1F72ECDE/assets/36E35D0E8DCB2323862ECB049F917A5C.jpeg" width="720.00" height="539.00" transform="matrix(1.00, 0.00, -0.00, -1.00, 0.0, 540.0)"></image></g></g><g><clipPath id="clip-36"><path d="M 186.9 495.7 L 703.2 495.7 L 703.2 521.5 L 186.9 521.5 Z M 186.9 495.7 "></path></clipPath><g clip-path="url(#clip-36)"><text xml:space="preserve" font-family="TrebuchetMS" font-size="22.7" fill="#953734" transform="matrix(1.00, 0.00, -0.00, -1.00, 443.1, 500.6)">У</text><text xml:space="preserve" font-family="TrebuchetMS" font-size="22.7" fill="#953734" transform="matrix(1.00, 0.00, -0.00, -1.00, 456.2, 500.6)">д</text><text xml:space="preserve" font-family="TrebuchetMS" font-size="22.7" fill="#953734" transform="matrix(1.00, 0.00, -0.00, -1.00, 469.3, 500.6)">а</text><text xml:space="preserve" font-family="TrebuchetMS" font-size="22.7" fill="#953734" transform="matrix(1.00, 0.00, -0.00, -1.00, 481.0, 500.6)">л</text><text xml:space="preserve" font-family="TrebuchetMS" font-size="22.7" fill="#953734" transform="matrix(1.00, 0.00, -0.00, -1.00, 493.8, 500.6)">е</text><text xml:space="preserve" font-family="TrebuchetMS" font-size="22.7" fill="#953734" transform="matrix(1.00, 0.00, -0.00, -1.00, 506.2, 500.6)">н</text><text xml:space="preserve" font-family="TrebuchetMS" font-size="22.7" fill="#953734" transform="matrix(1.00, 0.00, -0.00, -1.00, 518.9, 500.6)">и</text><text xml:space="preserve" font-family="TrebuchetMS" font-size="22.7" fill="#953734" transform="matrix(1.00, 0.00, -0.00, -1.00, 531.9, 500.6)">е</text><text xml:space="preserve" font-family="TrebuchetMS" font-size="22.7" fill="#953734" transform="matrix(1.00, 0.00, -0.00, -1.00, 544.3, 500.6)"> </text><text xml:space="preserve" font-family="TrebuchetMS" font-size="22.7" fill="#953734" transform="matrix(1.00, 0.00, -0.00, -1.00, 551.2, 500.6)">л</text><text xml:space="preserve" font-family="TrebuchetMS" font-size="22.7" fill="#953734" transform="matrix(1.00, 0.00, -0.00, -1.00, 564.0, 500.6)">и</text><text xml:space="preserve" font-family="TrebuchetMS" font-size="22.7" fill="#953734" transform="matrix(1.00, 0.00, -0.00, -1.00, 577.0, 500.6)">ш</text><text xml:space="preserve" font-family="TrebuchetMS" font-size="22.7" fill="#953734" transform="matrix(1.00, 0.00, -0.00, -1.00, 594.2, 500.6)">н</text><text xml:space="preserve" font-family="TrebuchetMS" font-size="22.7" fill="#953734" transform="matrix(1.00, 0.00, -0.00, -1.00, 606.9, 500.6)">и</text><text xml:space="preserve" font-family="TrebuchetMS" font-size="22.7" fill="#953734" transform="matrix(1.00, 0.00, -0.00, -1.00, 619.9, 500.6)">х</text><text xml:space="preserve" font-family="TrebuchetMS" font-size="22.7" fill="#953734" transform="matrix(1.00, 0.00, -0.00, -1.00, 631.4, 500.6)"> </text><text xml:space="preserve" font-family="TrebuchetMS" font-size="22.7" fill="#953734" transform="matrix(1.00, 0.00, -0.00, -1.00, 638.3, 500.6)">у</text><text xml:space="preserve" font-family="TrebuchetMS" font-size="22.7" fill="#953734" transform="matrix(1.00, 0.00, -0.00, -1.00, 649.6, 500.6)">з</text><text xml:space="preserve" font-family="TrebuchetMS" font-size="22.7" fill="#953734" transform="matrix(1.00, 0.00, -0.00, -1.00, 659.9, 500.6)">л</text><text xml:space="preserve" font-family="TrebuchetMS" font-size="22.7" fill="#953734" transform="matrix(1.00, 0.00, -0.00, -1.00, 672.7, 500.6)">о</text><text xml:space="preserve" font-family="TrebuchetMS" font-size="22.7" fill="#953734" transform="matrix(1.00, 0.00, -0.00, -1.00, 684.9, 500.6)">в</text></g></g><text xml:space="preserve" font-family="TrebuchetMS" font-size="12.0" fill="#878787" transform="matrix(1.00, 0.00, -0.00, -1.00, 40.0, 14.0)">1</text><text xml:space="preserve" font-family="TrebuchetMS" font-size="12.0" fill="#878787" transform="matrix(1.00, 0.00, -0.00, -1.00, 46.3, 14.0)">0</text><image xlink:href="../../920EE584-B7F4-494D-A1A5-97050DDE07F6/assets/38E0C7CC72681A862435BDE9F814DAE4.png" width="720.00" height="247.00" transform="matrix(1.00, 0.00, -0.00, -1.00, 0.0, 386.0)"></image></g></svg>