<?xml version="1.0" encoding="UTF-8" standalone="no"?><svg xmlns="http://www.w3.org/2000/svg" xmlns:xlink="http://www.w3.org/1999/xlink" clip-rule="evenodd" stroke-miterlimit="4.00" viewBox="0 0 720 540"><desc>SVG generated by Keynote</desc><defs></defs><g transform="matrix(1.00, 0.00, -0.00, -1.00, 0.0, 540.0)"><g><clipPath id="clip-31"><path d="M 0.0 540.0 L 720.0 540.0 L 720.0 0.0 L 0.0 0.0 Z M 0.0 540.0 "></path></clipPath><g clip-path="url(#clip-31)"><image xlink:href="../../9F71FDD0-7D0B-48C6-983A-900A1F72ECDE/assets/36E35D0E8DCB2323862ECB049F917A5C.jpeg" width="720.00" height="539.00" transform="matrix(1.00, 0.00, -0.00, -1.00, 0.0, 540.0)"></image></g></g><g><clipPath id="clip-32"><path d="M 186.9 495.7 L 703.2 495.7 L 703.2 521.5 L 186.9 521.5 Z M 186.9 495.7 "></path></clipPath><g clip-path="url(#clip-32)"><text xml:space="preserve" font-family="TrebuchetMS" font-size="22.7" fill="#953734" transform="matrix(1.00, 0.00, -0.00, -1.00, 330.8, 500.6)">Г</text><text xml:space="preserve" font-family="TrebuchetMS" font-size="22.7" fill="#953734" transform="matrix(1.00, 0.00, -0.00, -1.00, 342.6, 500.6)">е</text><text xml:space="preserve" font-family="TrebuchetMS" font-size="22.7" fill="#953734" transform="matrix(1.00, 0.00, -0.00, -1.00, 355.0, 500.6)">н</text><text xml:space="preserve" font-family="TrebuchetMS" font-size="22.7" fill="#953734" transform="matrix(1.00, 0.00, -0.00, -1.00, 367.7, 500.6)">е</text><text xml:space="preserve" font-family="TrebuchetMS" font-size="22.7" fill="#953734" transform="matrix(1.00, 0.00, -0.00, -1.00, 380.1, 500.6)">т</text><text xml:space="preserve" font-family="TrebuchetMS" font-size="22.7" fill="#953734" transform="matrix(1.00, 0.00, -0.00, -1.00, 390.4, 500.6)">и</text><text xml:space="preserve" font-family="TrebuchetMS" font-size="22.7" fill="#953734" transform="matrix(1.00, 0.00, -0.00, -1.00, 403.4, 500.6)">ч</text><text xml:space="preserve" font-family="TrebuchetMS" font-size="22.7" fill="#953734" transform="matrix(1.00, 0.00, -0.00, -1.00, 415.5, 500.6)">е</text><text xml:space="preserve" font-family="TrebuchetMS" font-size="22.7" fill="#953734" transform="matrix(1.00, 0.00, -0.00, -1.00, 427.9, 500.6)">с</text><text xml:space="preserve" font-family="TrebuchetMS" font-size="22.7" fill="#953734" transform="matrix(1.00, 0.00, -0.00, -1.00, 439.2, 500.6)">к</text><text xml:space="preserve" font-family="TrebuchetMS" font-size="22.7" fill="#953734" transform="matrix(1.00, 0.00, -0.00, -1.00, 450.9, 500.6)">и</text><text xml:space="preserve" font-family="TrebuchetMS" font-size="22.7" fill="#953734" transform="matrix(1.00, 0.00, -0.00, -1.00, 463.9, 500.6)">е</text><text xml:space="preserve" font-family="TrebuchetMS" font-size="22.7" fill="#953734" transform="matrix(1.00, 0.00, -0.00, -1.00, 476.3, 500.6)"> </text><text xml:space="preserve" font-family="TrebuchetMS" font-size="22.7" fill="#953734" transform="matrix(1.00, 0.00, -0.00, -1.00, 483.2, 500.6)">о</text><text xml:space="preserve" font-family="TrebuchetMS" font-size="22.7" fill="#953734" transform="matrix(1.00, 0.00, -0.00, -1.00, 495.4, 500.6)">п</text><text xml:space="preserve" font-family="TrebuchetMS" font-size="22.7" fill="#953734" transform="matrix(1.00, 0.00, -0.00, -1.00, 507.8, 500.6)">е</text><text xml:space="preserve" font-family="TrebuchetMS" font-size="22.7" fill="#953734" transform="matrix(1.00, 0.00, -0.00, -1.00, 520.2, 500.6)">р</text><text xml:space="preserve" font-family="TrebuchetMS" font-size="22.7" fill="#953734" transform="matrix(1.00, 0.00, -0.00, -1.00, 532.9, 500.6)">а</text><text xml:space="preserve" font-family="TrebuchetMS" font-size="22.7" fill="#953734" transform="matrix(1.00, 0.00, -0.00, -1.00, 544.5, 500.6)">т</text><text xml:space="preserve" font-family="TrebuchetMS" font-size="22.7" fill="#953734" transform="matrix(1.00, 0.00, -0.00, -1.00, 554.8, 500.6)">о</text><text xml:space="preserve" font-family="TrebuchetMS" font-size="22.7" fill="#953734" transform="matrix(1.00, 0.00, -0.00, -1.00, 567.0, 500.6)">р</text><text xml:space="preserve" font-family="TrebuchetMS" font-size="22.7" fill="#953734" transform="matrix(1.00, 0.00, -0.00, -1.00, 579.7, 500.6)">ы</text><text xml:space="preserve" font-family="TrebuchetMS" font-size="22.7" fill="#953734" transform="matrix(1.00, 0.00, -0.00, -1.00, 595.3, 500.6)">:</text><text xml:space="preserve" font-family="TrebuchetMS" font-size="22.7" fill="#953734" transform="matrix(1.00, 0.00, -0.00, -1.00, 603.6, 500.6)"> </text><text xml:space="preserve" font-family="TrebuchetMS" font-size="22.7" fill="#953734" transform="matrix(1.00, 0.00, -0.00, -1.00, 610.4, 500.6)">м</text><text xml:space="preserve" font-family="TrebuchetMS" font-size="22.7" fill="#953734" transform="matrix(1.00, 0.00, -0.00, -1.00, 625.9, 500.6)">у</text><text xml:space="preserve" font-family="TrebuchetMS" font-size="22.7" fill="#953734" transform="matrix(1.00, 0.00, -0.00, -1.00, 637.2, 500.6)">т</text><text xml:space="preserve" font-family="TrebuchetMS" font-size="22.7" fill="#953734" transform="matrix(1.00, 0.00, -0.00, -1.00, 647.5, 500.6)">а</text><text xml:space="preserve" font-family="TrebuchetMS" font-size="22.7" fill="#953734" transform="matrix(1.00, 0.00, -0.00, -1.00, 659.2, 500.6)">ц</text><text xml:space="preserve" font-family="TrebuchetMS" font-size="22.7" fill="#953734" transform="matrix(1.00, 0.00, -0.00, -1.00, 671.7, 500.6)">и</text><text xml:space="preserve" font-family="TrebuchetMS" font-size="22.7" fill="#953734" transform="matrix(1.00, 0.00, -0.00, -1.00, 684.7, 500.6)">я</text></g></g><text xml:space="preserve" font-family="TrebuchetMS" font-size="12.0" fill="#878787" transform="matrix(1.00, 0.00, -0.00, -1.00, 40.0, 14.0)">9</text><image xlink:href="../../F9136B08-B9B3-4B3F-9D61-78C9B0D5699D/assets/C27D81CF83996E9A32DFDE9AABB18B11.png" width="720.00" height="242.00" transform="matrix(1.00, 0.00, -0.00, -1.00, 0.0, 384.0)"></image></g></svg>