<?xml version="1.0" encoding="UTF-8" standalone="no"?><svg xmlns="http://www.w3.org/2000/svg" xmlns:xlink="http://www.w3.org/1999/xlink" clip-rule="evenodd" stroke-miterlimit="4.00" viewBox="0 0 720 540"><desc>SVG generated by Keynote</desc><defs></defs><g transform="matrix(1.00, 0.00, -0.00, -1.00, 0.0, 540.0)"><g><clipPath id="clip-21"><path d="M 0.0 540.0 L 720.0 540.0 L 720.0 0.0 L 0.0 0.0 Z M 0.0 540.0 "></path></clipPath><g clip-path="url(#clip-21)"><image xlink:href="../../9F71FDD0-7D0B-48C6-983A-900A1F72ECDE/assets/36E35D0E8DCB2323862ECB049F917A5C.jpeg" width="720.00" height="539.00" transform="matrix(1.00, 0.00, -0.00, -1.00, 0.0, 540.0)"></image></g></g><g><clipPath id="clip-22"><path d="M 186.9 495.7 L 703.2 495.7 L 703.2 521.5 L 186.9 521.5 Z M 186.9 495.7 "></path></clipPath><g clip-path="url(#clip-22)"><text xml:space="preserve" font-family="TrebuchetMS" font-size="22.7" fill="#953734" transform="matrix(1.00, 0.00, -0.00, -1.00, 445.7, 500.6)">Г</text><text xml:space="preserve" font-family="TrebuchetMS" font-size="22.7" fill="#953734" transform="matrix(1.00, 0.00, -0.00, -1.00, 457.5, 500.6)">е</text><text xml:space="preserve" font-family="TrebuchetMS" font-size="22.7" fill="#953734" transform="matrix(1.00, 0.00, -0.00, -1.00, 469.9, 500.6)">н</text><text xml:space="preserve" font-family="TrebuchetMS" font-size="22.7" fill="#953734" transform="matrix(1.00, 0.00, -0.00, -1.00, 482.6, 500.6)">е</text><text xml:space="preserve" font-family="TrebuchetMS" font-size="22.7" fill="#953734" transform="matrix(1.00, 0.00, -0.00, -1.00, 495.0, 500.6)">т</text><text xml:space="preserve" font-family="TrebuchetMS" font-size="22.7" fill="#953734" transform="matrix(1.00, 0.00, -0.00, -1.00, 505.3, 500.6)">и</text><text xml:space="preserve" font-family="TrebuchetMS" font-size="22.7" fill="#953734" transform="matrix(1.00, 0.00, -0.00, -1.00, 518.3, 500.6)">ч</text><text xml:space="preserve" font-family="TrebuchetMS" font-size="22.7" fill="#953734" transform="matrix(1.00, 0.00, -0.00, -1.00, 530.4, 500.6)">е</text><text xml:space="preserve" font-family="TrebuchetMS" font-size="22.7" fill="#953734" transform="matrix(1.00, 0.00, -0.00, -1.00, 542.8, 500.6)">с</text><text xml:space="preserve" font-family="TrebuchetMS" font-size="22.7" fill="#953734" transform="matrix(1.00, 0.00, -0.00, -1.00, 554.1, 500.6)">к</text><text xml:space="preserve" font-family="TrebuchetMS" font-size="22.7" fill="#953734" transform="matrix(1.00, 0.00, -0.00, -1.00, 565.8, 500.6)">и</text><text xml:space="preserve" font-family="TrebuchetMS" font-size="22.7" fill="#953734" transform="matrix(1.00, 0.00, -0.00, -1.00, 578.8, 500.6)">й</text><text xml:space="preserve" font-family="TrebuchetMS" font-size="22.7" fill="#953734" transform="matrix(1.00, 0.00, -0.00, -1.00, 591.8, 500.6)"> </text><text xml:space="preserve" font-family="TrebuchetMS" font-size="22.7" fill="#953734" transform="matrix(1.00, 0.00, -0.00, -1.00, 598.7, 500.6)">а</text><text xml:space="preserve" font-family="TrebuchetMS" font-size="22.7" fill="#953734" transform="matrix(1.00, 0.00, -0.00, -1.00, 610.3, 500.6)">л</text><text xml:space="preserve" font-family="TrebuchetMS" font-size="22.7" fill="#953734" transform="matrix(1.00, 0.00, -0.00, -1.00, 623.1, 500.6)">г</text><text xml:space="preserve" font-family="TrebuchetMS" font-size="22.7" fill="#953734" transform="matrix(1.00, 0.00, -0.00, -1.00, 632.9, 500.6)">о</text><text xml:space="preserve" font-family="TrebuchetMS" font-size="22.7" fill="#953734" transform="matrix(1.00, 0.00, -0.00, -1.00, 645.2, 500.6)">р</text><text xml:space="preserve" font-family="TrebuchetMS" font-size="22.7" fill="#953734" transform="matrix(1.00, 0.00, -0.00, -1.00, 657.8, 500.6)">и</text><text xml:space="preserve" font-family="TrebuchetMS" font-size="22.7" fill="#953734" transform="matrix(1.00, 0.00, -0.00, -1.00, 670.8, 500.6)">т</text><text xml:space="preserve" font-family="TrebuchetMS" font-size="22.7" fill="#953734" transform="matrix(1.00, 0.00, -0.00, -1.00, 681.1, 500.6)">м</text></g></g><text xml:space="preserve" font-family="ArialMT" font-size="23.0" fill="#000000" transform="matrix(1.00, 0.00, -0.00, -1.00, 55.8, 379.9)">•</text><text xml:space="preserve" font-family="TrebuchetMS" font-size="23.0" fill="#000000" transform="matrix(1.00, 0.00, -0.00, -1.00, 83.0, 380.0)">В</text><text xml:space="preserve" font-family="TrebuchetMS" font-size="23.0" fill="#000000" transform="matrix(1.00, 0.00, -0.00, -1.00, 96.1, 380.0)">е</text><text xml:space="preserve" font-family="TrebuchetMS" font-size="23.0" fill="#000000" transform="matrix(1.00, 0.00, -0.00, -1.00, 108.6, 380.0)">р</text><text xml:space="preserve" font-family="TrebuchetMS" font-size="23.0" fill="#000000" transform="matrix(1.00, 0.00, -0.00, -1.00, 121.5, 380.0)">о</text><text xml:space="preserve" font-family="TrebuchetMS" font-size="23.0" fill="#000000" transform="matrix(1.00, 0.00, -0.00, -1.00, 133.8, 380.0)">я</text><text xml:space="preserve" font-family="TrebuchetMS" font-size="23.0" fill="#000000" transform="matrix(1.00, 0.00, -0.00, -1.00, 145.9, 380.0)">т</text><text xml:space="preserve" font-family="TrebuchetMS" font-size="23.0" fill="#000000" transform="matrix(1.00, 0.00, -0.00, -1.00, 156.3, 380.0)">н</text><text xml:space="preserve" font-family="TrebuchetMS" font-size="23.0" fill="#000000" transform="matrix(1.00, 0.00, -0.00, -1.00, 169.1, 380.0)">о</text><text xml:space="preserve" font-family="TrebuchetMS" font-size="23.0" fill="#000000" transform="matrix(1.00, 0.00, -0.00, -1.00, 181.5, 380.0)">с</text><text xml:space="preserve" font-family="TrebuchetMS" font-size="23.0" fill="#000000" transform="matrix(1.00, 0.00, -0.00, -1.00, 192.9, 380.0)">т</text><text xml:space="preserve" font-family="TrebuchetMS" font-size="23.0" fill="#000000" transform="matrix(1.00, 0.00, -0.00, -1.00, 203.4, 380.0)">ь</text><text xml:space="preserve" font-family="TrebuchetMS" font-size="23.0" fill="#000000" transform="matrix(1.00, 0.00, -0.00, -1.00, 215.0, 380.0)"> </text><text xml:space="preserve" font-family="TrebuchetMS" font-size="23.0" fill="#000000" transform="matrix(1.00, 0.00, -0.00, -1.00, 221.9, 380.0)">д</text><text xml:space="preserve" font-family="TrebuchetMS" font-size="23.0" fill="#000000" transform="matrix(1.00, 0.00, -0.00, -1.00, 235.2, 380.0)">л</text><text xml:space="preserve" font-family="TrebuchetMS" font-size="23.0" fill="#000000" transform="matrix(1.00, 0.00, -0.00, -1.00, 248.2, 380.0)">я</text><text xml:space="preserve" font-family="TrebuchetMS" font-size="23.0" fill="#000000" transform="matrix(1.00, 0.00, -0.00, -1.00, 260.2, 380.0)"> </text><text xml:space="preserve" font-family="TrebuchetMS" font-size="23.0" fill="#000000" transform="matrix(1.00, 0.00, -0.00, -1.00, 267.2, 380.0)">с</text><text xml:space="preserve" font-family="TrebuchetMS" font-size="23.0" fill="#000000" transform="matrix(1.00, 0.00, -0.00, -1.00, 278.6, 380.0)">е</text><text xml:space="preserve" font-family="TrebuchetMS" font-size="23.0" fill="#000000" transform="matrix(1.00, 0.00, -0.00, -1.00, 291.2, 380.0)">л</text><text xml:space="preserve" font-family="TrebuchetMS" font-size="23.0" fill="#000000" transform="matrix(1.00, 0.00, -0.00, -1.00, 304.1, 380.0)">е</text><text xml:space="preserve" font-family="TrebuchetMS" font-size="23.0" fill="#000000" transform="matrix(1.00, 0.00, -0.00, -1.00, 316.7, 380.0)">к</text><text xml:space="preserve" font-family="TrebuchetMS" font-size="23.0" fill="#000000" transform="matrix(1.00, 0.00, -0.00, -1.00, 328.6, 380.0)">ц</text><text xml:space="preserve" font-family="TrebuchetMS" font-size="23.0" fill="#000000" transform="matrix(1.00, 0.00, -0.00, -1.00, 341.2, 380.0)">и</text><text xml:space="preserve" font-family="TrebuchetMS" font-size="23.0" fill="#000000" transform="matrix(1.00, 0.00, -0.00, -1.00, 354.4, 380.0)">и</text><text xml:space="preserve" font-family="TrebuchetMS" font-size="23.0" fill="#000000" transform="matrix(1.00, 0.00, -0.00, -1.00, 367.5, 380.0)">:</text><text xml:space="preserve" font-family="TrebuchetMS" font-size="23.0" fill="#000000" transform="matrix(1.00, 0.00, -0.00, -1.00, 376.0, 380.0)"> </text><text xml:space="preserve" font-family="ArialMT" font-size="23.0" fill="#000000" transform="matrix(1.00, 0.00, -0.00, -1.00, 55.8, 310.6)">•</text><text xml:space="preserve" font-family="TrebuchetMS" font-size="23.0" fill="#000000" transform="matrix(1.00, 0.00, -0.00, -1.00, 83.0, 310.0)">Ц</text><text xml:space="preserve" font-family="TrebuchetMS" font-size="23.0" fill="#000000" transform="matrix(1.00, 0.00, -0.00, -1.00, 98.0, 310.0)">е</text><text xml:space="preserve" font-family="TrebuchetMS" font-size="23.0" fill="#000000" transform="matrix(1.00, 0.00, -0.00, -1.00, 110.5, 310.0)">л</text><text xml:space="preserve" font-family="TrebuchetMS" font-size="23.0" fill="#000000" transform="matrix(1.00, 0.00, -0.00, -1.00, 123.5, 310.0)">е</text><text xml:space="preserve" font-family="TrebuchetMS" font-size="23.0" fill="#000000" transform="matrix(1.00, 0.00, -0.00, -1.00, 136.1, 310.0)">в</text><text xml:space="preserve" font-family="TrebuchetMS" font-size="23.0" fill="#000000" transform="matrix(1.00, 0.00, -0.00, -1.00, 147.9, 310.0)">а</text><text xml:space="preserve" font-family="TrebuchetMS" font-size="23.0" fill="#000000" transform="matrix(1.00, 0.00, -0.00, -1.00, 159.7, 310.0)">я</text><text xml:space="preserve" font-family="TrebuchetMS" font-size="23.0" fill="#000000" transform="matrix(1.00, 0.00, -0.00, -1.00, 171.8, 310.0)"> </text><text xml:space="preserve" font-family="TrebuchetMS" font-size="23.0" fill="#000000" transform="matrix(1.00, 0.00, -0.00, -1.00, 178.7, 310.0)">ф</text><text xml:space="preserve" font-family="TrebuchetMS" font-size="23.0" fill="#000000" transform="matrix(1.00, 0.00, -0.00, -1.00, 196.6, 310.0)">у</text><text xml:space="preserve" font-family="TrebuchetMS" font-size="23.0" fill="#000000" transform="matrix(1.00, 0.00, -0.00, -1.00, 208.0, 310.0)">н</text><text xml:space="preserve" font-family="TrebuchetMS" font-size="23.0" fill="#000000" transform="matrix(1.00, 0.00, -0.00, -1.00, 220.9, 310.0)">к</text><text xml:space="preserve" font-family="TrebuchetMS" font-size="23.0" fill="#000000" transform="matrix(1.00, 0.00, -0.00, -1.00, 232.8, 310.0)">ц</text><text xml:space="preserve" font-family="TrebuchetMS" font-size="23.0" fill="#000000" transform="matrix(1.00, 0.00, -0.00, -1.00, 245.4, 310.0)">и</text><text xml:space="preserve" font-family="TrebuchetMS" font-size="23.0" fill="#000000" transform="matrix(1.00, 0.00, -0.00, -1.00, 258.6, 310.0)">я</text><text xml:space="preserve" font-family="TrebuchetMS" font-size="23.0" fill="#000000" transform="matrix(1.00, 0.00, -0.00, -1.00, 270.6, 310.0)"> </text><text xml:space="preserve" font-family="TrebuchetMS" font-size="23.0" fill="#000000" transform="matrix(1.00, 0.00, -0.00, -1.00, 277.6, 310.0)">(</text><text xml:space="preserve" font-family="TrebuchetMS" font-size="23.0" fill="#000000" transform="matrix(1.00, 0.00, -0.00, -1.00, 286.0, 310.0)">к</text><text xml:space="preserve" font-family="TrebuchetMS" font-size="23.0" fill="#000000" transform="matrix(1.00, 0.00, -0.00, -1.00, 297.9, 310.0)">о</text><text xml:space="preserve" font-family="TrebuchetMS" font-size="23.0" fill="#000000" transform="matrix(1.00, 0.00, -0.00, -1.00, 310.2, 310.0)">э</text><text xml:space="preserve" font-family="TrebuchetMS" font-size="23.0" fill="#000000" transform="matrix(1.00, 0.00, -0.00, -1.00, 321.7, 310.0)">ф</text><text xml:space="preserve" font-family="TrebuchetMS" font-size="23.0" fill="#000000" transform="matrix(1.00, 0.00, -0.00, -1.00, 339.5, 310.0)">ф</text><text xml:space="preserve" font-family="TrebuchetMS" font-size="23.0" fill="#000000" transform="matrix(1.00, 0.00, -0.00, -1.00, 357.4, 310.0)">и</text><text xml:space="preserve" font-family="TrebuchetMS" font-size="23.0" fill="#000000" transform="matrix(1.00, 0.00, -0.00, -1.00, 370.6, 310.0)">ц</text><text xml:space="preserve" font-family="TrebuchetMS" font-size="23.0" fill="#000000" transform="matrix(1.00, 0.00, -0.00, -1.00, 383.2, 310.0)">и</text><text xml:space="preserve" font-family="TrebuchetMS" font-size="23.0" fill="#000000" transform="matrix(1.00, 0.00, -0.00, -1.00, 396.4, 310.0)">е</text><text xml:space="preserve" font-family="TrebuchetMS" font-size="23.0" fill="#000000" transform="matrix(1.00, 0.00, -0.00, -1.00, 408.9, 310.0)">н</text><text xml:space="preserve" font-family="TrebuchetMS" font-size="23.0" fill="#000000" transform="matrix(1.00, 0.00, -0.00, -1.00, 421.8, 310.0)">т</text><text xml:space="preserve" font-family="TrebuchetMS" font-size="23.0" fill="#000000" transform="matrix(1.00, 0.00, -0.00, -1.00, 432.2, 310.0)"> </text><text xml:space="preserve" font-family="TrebuchetMS" font-size="23.0" fill="#000000" transform="matrix(1.00, 0.00, -0.00, -1.00, 439.2, 310.0)">Ш</text><text xml:space="preserve" font-family="TrebuchetMS" font-size="23.0" fill="#000000" transform="matrix(1.00, 0.00, -0.00, -1.00, 459.7, 310.0)">а</text><text xml:space="preserve" font-family="TrebuchetMS" font-size="23.0" fill="#000000" transform="matrix(1.00, 0.00, -0.00, -1.00, 471.5, 310.0)">р</text><text xml:space="preserve" font-family="TrebuchetMS" font-size="23.0" fill="#000000" transform="matrix(1.00, 0.00, -0.00, -1.00, 484.3, 310.0)">п</text><text xml:space="preserve" font-family="TrebuchetMS" font-size="23.0" fill="#000000" transform="matrix(1.00, 0.00, -0.00, -1.00, 496.9, 310.0)">а</text><text xml:space="preserve" font-family="TrebuchetMS" font-size="23.0" fill="#000000" transform="matrix(1.00, 0.00, -0.00, -1.00, 508.7, 310.0)">)</text><text xml:space="preserve" font-family="TrebuchetMS" font-size="23.0" fill="#000000" transform="matrix(1.00, 0.00, -0.00, -1.00, 517.1, 310.0)">:</text><text xml:space="preserve" font-family="TrebuchetMS" font-size="12.0" fill="#878787" transform="matrix(1.00, 0.00, -0.00, -1.00, 40.0, 14.0)">7</text><image xlink:href="D8F8C6AD537111B91B3D0259744B144E.png" width="180.00" height="105.00" transform="matrix(0.99, 0.00, -0.00, -1.00, 392.0, 441.0)"></image><image xlink:href="048C506A5CB2157E4232DB9C3F41D515.png" width="180.00" height="93.00" transform="matrix(0.99, 0.00, -0.00, -1.00, 83.0, 295.0)"></image><text xml:space="preserve" font-family="TrebuchetMS" font-size="21.0" fill="#000000" transform="matrix(1.00, 0.00, -0.00, -1.00, 275.0, 239.0)">г</text><text xml:space="preserve" font-family="TrebuchetMS" font-size="21.0" fill="#000000" transform="matrix(1.00, 0.00, -0.00, -1.00, 284.1, 239.0)">д</text><text xml:space="preserve" font-family="TrebuchetMS" font-size="21.0" fill="#000000" transform="matrix(1.00, 0.00, -0.00, -1.00, 296.2, 239.0)">е</text><text xml:space="preserve" font-family="TrebuchetMS" font-size="21.0" fill="#000000" transform="matrix(1.00, 0.00, -0.00, -1.00, 307.7, 239.0)"> </text><text xml:space="preserve" font-family="TrebuchetMS" font-size="21.0" fill="#000000" transform="matrix(1.00, 0.00, -0.00, -1.00, 314.1, 239.0)">r</text><text xml:space="preserve" font-family="TrebuchetMS" font-size="21.0" fill="#000000" transform="matrix(1.00, 0.00, -0.00, -1.00, 322.2, 236.0)">p</text><text xml:space="preserve" font-family="TrebuchetMS" font-size="21.0" fill="#000000" transform="matrix(1.00, 0.00, -0.00, -1.00, 333.9, 236.0)"> </text><text xml:space="preserve" font-family="TrebuchetMS" font-size="21.0" fill="#000000" transform="matrix(1.00, 0.00, -0.00, -1.00, 340.2, 239.0)">-</text><text xml:space="preserve" font-family="TrebuchetMS" font-size="21.0" fill="#000000" transform="matrix(1.00, 0.00, -0.00, -1.00, 348.0, 239.0)"> </text><text xml:space="preserve" font-family="TrebuchetMS" font-size="21.0" fill="#000000" transform="matrix(1.00, 0.00, -0.00, -1.00, 354.3, 239.0)">с</text><text xml:space="preserve" font-family="TrebuchetMS" font-size="21.0" fill="#000000" transform="matrix(1.00, 0.00, -0.00, -1.00, 364.7, 239.0)">р</text><text xml:space="preserve" font-family="TrebuchetMS" font-size="21.0" fill="#000000" transform="matrix(1.00, 0.00, -0.00, -1.00, 376.4, 239.0)">е</text><text xml:space="preserve" font-family="TrebuchetMS" font-size="21.0" fill="#000000" transform="matrix(1.00, 0.00, -0.00, -1.00, 387.9, 239.0)">д</text><text xml:space="preserve" font-family="TrebuchetMS" font-size="21.0" fill="#000000" transform="matrix(1.00, 0.00, -0.00, -1.00, 400.1, 239.0)">н</text><text xml:space="preserve" font-family="TrebuchetMS" font-size="21.0" fill="#000000" transform="matrix(1.00, 0.00, -0.00, -1.00, 411.8, 239.0)">и</text><text xml:space="preserve" font-family="LucidaGrande" font-size="21.0" fill="#000000" transform="matrix(1.00, 0.00, -0.00, -1.00, 423.8, 239.0)">й</text><text xml:space="preserve" font-family="TrebuchetMS" font-size="21.0" fill="#000000" transform="matrix(1.00, 0.00, -0.00, -1.00, 436.9, 239.0)"> </text><text xml:space="preserve" font-family="TrebuchetMS" font-size="21.0" fill="#000000" transform="matrix(1.00, 0.00, -0.00, -1.00, 443.3, 239.0)">д</text><text xml:space="preserve" font-family="TrebuchetMS" font-size="21.0" fill="#000000" transform="matrix(1.00, 0.00, -0.00, -1.00, 455.4, 239.0)">о</text><text xml:space="preserve" font-family="TrebuchetMS" font-size="21.0" fill="#000000" transform="matrix(1.00, 0.00, -0.00, -1.00, 466.7, 239.0)">х</text><text xml:space="preserve" font-family="TrebuchetMS" font-size="21.0" fill="#000000" transform="matrix(1.00, 0.00, -0.00, -1.00, 477.4, 239.0)">о</text><text xml:space="preserve" font-family="TrebuchetMS" font-size="21.0" fill="#000000" transform="matrix(1.00, 0.00, -0.00, -1.00, 488.7, 239.0)">д</text><text xml:space="preserve" font-family="TrebuchetMS" font-size="21.0" fill="#000000" transform="matrix(1.00, 0.00, -0.00, -1.00, 500.8, 239.0)">,</text><text xml:space="preserve" font-family="TrebuchetMS" font-size="21.0" fill="#000000" transform="matrix(1.00, 0.00, -0.00, -1.00, 508.5, 239.0)"> </text><text xml:space="preserve" font-family="TrebuchetMS" font-size="21.0" fill="#000000" transform="matrix(1.00, 0.00, -0.00, -1.00, 514.8, 239.0)"> </text><text xml:space="preserve" font-family="TrebuchetMS" font-size="21.0" fill="#000000" transform="matrix(1.00, 0.00, -0.00, -1.00, 275.0, 199.0)">R</text><text xml:space="preserve" font-family="TrebuchetMS" font-size="21.0" fill="#000000" transform="matrix(1.00, 0.00, -0.00, -1.00, 287.2, 196.0)">f</text><text xml:space="preserve" font-family="TrebuchetMS" font-size="21.0" fill="#000000" transform="matrix(1.00, 0.00, -0.00, -1.00, 295.0, 196.0)"> </text><text xml:space="preserve" font-family="TrebuchetMS" font-size="21.0" fill="#000000" transform="matrix(1.00, 0.00, -0.00, -1.00, 301.3, 199.0)">-</text><text xml:space="preserve" font-family="TrebuchetMS" font-size="21.0" fill="#000000" transform="matrix(1.00, 0.00, -0.00, -1.00, 309.0, 199.0)"> </text><text xml:space="preserve" font-family="TrebuchetMS" font-size="21.0" fill="#000000" transform="matrix(1.00, 0.00, -0.00, -1.00, 315.4, 199.0)">д</text><text xml:space="preserve" font-family="TrebuchetMS" font-size="21.0" fill="#000000" transform="matrix(1.00, 0.00, -0.00, -1.00, 327.5, 199.0)">о</text><text xml:space="preserve" font-family="TrebuchetMS" font-size="21.0" fill="#000000" transform="matrix(1.00, 0.00, -0.00, -1.00, 338.8, 199.0)">х</text><text xml:space="preserve" font-family="TrebuchetMS" font-size="21.0" fill="#000000" transform="matrix(1.00, 0.00, -0.00, -1.00, 349.5, 199.0)">о</text><text xml:space="preserve" font-family="TrebuchetMS" font-size="21.0" fill="#000000" transform="matrix(1.00, 0.00, -0.00, -1.00, 360.7, 199.0)">д</text><text xml:space="preserve" font-family="TrebuchetMS" font-size="21.0" fill="#000000" transform="matrix(1.00, 0.00, -0.00, -1.00, 372.9, 199.0)"> </text><text xml:space="preserve" font-family="TrebuchetMS" font-size="21.0" fill="#000000" transform="matrix(1.00, 0.00, -0.00, -1.00, 379.2, 199.0)">с</text><text xml:space="preserve" font-family="TrebuchetMS" font-size="21.0" fill="#000000" transform="matrix(1.00, 0.00, -0.00, -1.00, 389.7, 199.0)"> </text><text xml:space="preserve" font-family="TrebuchetMS" font-size="21.0" fill="#000000" transform="matrix(1.00, 0.00, -0.00, -1.00, 396.0, 199.0)">р</text><text xml:space="preserve" font-family="TrebuchetMS" font-size="21.0" fill="#000000" transform="matrix(1.00, 0.00, -0.00, -1.00, 407.7, 199.0)">и</text><text xml:space="preserve" font-family="TrebuchetMS" font-size="21.0" fill="#000000" transform="matrix(1.00, 0.00, -0.00, -1.00, 419.7, 199.0)">с</text><text xml:space="preserve" font-family="TrebuchetMS" font-size="21.0" fill="#000000" transform="matrix(1.00, 0.00, -0.00, -1.00, 430.1, 199.0)">к</text><text xml:space="preserve" font-family="TrebuchetMS" font-size="21.0" fill="#000000" transform="matrix(1.00, 0.00, -0.00, -1.00, 441.0, 199.0)">о</text><text xml:space="preserve" font-family="TrebuchetMS" font-size="21.0" fill="#000000" transform="matrix(1.00, 0.00, -0.00, -1.00, 452.3, 199.0)">м</text><text xml:space="preserve" font-family="TrebuchetMS" font-size="21.0" fill="#000000" transform="matrix(1.00, 0.00, -0.00, -1.00, 466.6, 199.0)"> </text><text xml:space="preserve" font-family="TrebuchetMS" font-size="21.0" fill="#000000" transform="matrix(1.00, 0.00, -0.00, -1.00, 472.9, 199.0)">р</text><text xml:space="preserve" font-family="TrebuchetMS" font-size="21.0" fill="#000000" transform="matrix(1.00, 0.00, -0.00, -1.00, 484.6, 199.0)">а</text><text xml:space="preserve" font-family="TrebuchetMS" font-size="21.0" fill="#000000" transform="matrix(1.00, 0.00, -0.00, -1.00, 495.4, 199.0)">в</text><text xml:space="preserve" font-family="TrebuchetMS" font-size="21.0" fill="#000000" transform="matrix(1.00, 0.00, -0.00, -1.00, 506.2, 199.0)">н</text><text xml:space="preserve" font-family="TrebuchetMS" font-size="21.0" fill="#000000" transform="matrix(1.00, 0.00, -0.00, -1.00, 518.0, 199.0)">ы</text><text xml:space="preserve" font-family="TrebuchetMS" font-size="21.0" fill="#000000" transform="matrix(1.00, 0.00, -0.00, -1.00, 532.4, 199.0)">м</text><text xml:space="preserve" font-family="TrebuchetMS" font-size="21.0" fill="#000000" transform="matrix(1.00, 0.00, -0.00, -1.00, 546.7, 199.0)"> </text><text xml:space="preserve" font-family="TrebuchetMS" font-size="21.0" fill="#000000" transform="matrix(1.00, 0.00, -0.00, -1.00, 553.0, 199.0)">н</text><text xml:space="preserve" font-family="TrebuchetMS" font-size="21.0" fill="#000000" transform="matrix(1.00, 0.00, -0.00, -1.00, 564.8, 199.0)">у</text><text xml:space="preserve" font-family="TrebuchetMS" font-size="21.0" fill="#000000" transform="matrix(1.00, 0.00, -0.00, -1.00, 575.2, 199.0)">л</text><text xml:space="preserve" font-family="TrebuchetMS" font-size="21.0" fill="#000000" transform="matrix(1.00, 0.00, -0.00, -1.00, 587.0, 199.0)">ю</text><text xml:space="preserve" font-family="TrebuchetMS" font-size="21.0" fill="#000000" transform="matrix(1.00, 0.00, -0.00, -1.00, 602.2, 199.0)">,</text><text xml:space="preserve" font-family="TrebuchetMS" font-size="21.0" fill="#000000" transform="matrix(1.00, 0.00, -0.00, -1.00, 609.9, 199.0)"> </text><text xml:space="preserve" font-family="TrebuchetMS" font-size="21.0" fill="#000000" transform="matrix(1.00, 0.00, -0.00, -1.00, 616.2, 199.0)"> </text><text xml:space="preserve" font-family="TrebuchetMS" font-size="21.0" fill="#000000" transform="matrix(1.00, 0.00, -0.00, -1.00, 275.0, 159.0)">δ</text><text xml:space="preserve" font-family="TrebuchetMS" font-size="21.0" fill="#000000" transform="matrix(1.00, 0.00, -0.00, -1.00, 286.6, 159.0)">(</text><text xml:space="preserve" font-family="TrebuchetMS" font-size="21.0" fill="#000000" transform="matrix(1.00, 0.00, -0.00, -1.00, 294.3, 159.0)">x</text><text xml:space="preserve" font-family="TrebuchetMS" font-size="21.0" fill="#000000" transform="matrix(1.00, 0.00, -0.00, -1.00, 304.9, 159.0)">)</text><text xml:space="preserve" font-family="TrebuchetMS" font-size="21.0" fill="#000000" transform="matrix(1.00, 0.00, -0.00, -1.00, 312.6, 159.0)"> </text><text xml:space="preserve" font-family="TrebuchetMS" font-size="21.0" fill="#000000" transform="matrix(1.00, 0.00, -0.00, -1.00, 318.9, 159.0)">-</text><text xml:space="preserve" font-family="TrebuchetMS" font-size="21.0" fill="#000000" transform="matrix(1.00, 0.00, -0.00, -1.00, 326.6, 159.0)"> </text><text xml:space="preserve" font-family="TrebuchetMS" font-size="21.0" fill="#000000" transform="matrix(1.00, 0.00, -0.00, -1.00, 333.0, 159.0)">с</text><text xml:space="preserve" font-family="TrebuchetMS" font-size="21.0" fill="#000000" transform="matrix(1.00, 0.00, -0.00, -1.00, 343.4, 159.0)">т</text><text xml:space="preserve" font-family="TrebuchetMS" font-size="21.0" fill="#000000" transform="matrix(1.00, 0.00, -0.00, -1.00, 352.9, 159.0)">а</text><text xml:space="preserve" font-family="TrebuchetMS" font-size="21.0" fill="#000000" transform="matrix(1.00, 0.00, -0.00, -1.00, 363.7, 159.0)">н</text><text xml:space="preserve" font-family="TrebuchetMS" font-size="21.0" fill="#000000" transform="matrix(1.00, 0.00, -0.00, -1.00, 375.4, 159.0)">д</text><text xml:space="preserve" font-family="TrebuchetMS" font-size="21.0" fill="#000000" transform="matrix(1.00, 0.00, -0.00, -1.00, 387.6, 159.0)">а</text><text xml:space="preserve" font-family="TrebuchetMS" font-size="21.0" fill="#000000" transform="matrix(1.00, 0.00, -0.00, -1.00, 398.4, 159.0)">р</text><text xml:space="preserve" font-family="TrebuchetMS" font-size="21.0" fill="#000000" transform="matrix(1.00, 0.00, -0.00, -1.00, 410.1, 159.0)">т</text><text xml:space="preserve" font-family="TrebuchetMS" font-size="21.0" fill="#000000" transform="matrix(1.00, 0.00, -0.00, -1.00, 419.6, 159.0)">н</text><text xml:space="preserve" font-family="TrebuchetMS" font-size="21.0" fill="#000000" transform="matrix(1.00, 0.00, -0.00, -1.00, 431.3, 159.0)">о</text><text xml:space="preserve" font-family="TrebuchetMS" font-size="21.0" fill="#000000" transform="matrix(1.00, 0.00, -0.00, -1.00, 442.6, 159.0)">е</text><text xml:space="preserve" font-family="TrebuchetMS" font-size="21.0" fill="#000000" transform="matrix(1.00, 0.00, -0.00, -1.00, 454.1, 159.0)"> </text><text xml:space="preserve" font-family="TrebuchetMS" font-size="21.0" fill="#000000" transform="matrix(1.00, 0.00, -0.00, -1.00, 460.4, 159.0)">о</text><text xml:space="preserve" font-family="TrebuchetMS" font-size="21.0" fill="#000000" transform="matrix(1.00, 0.00, -0.00, -1.00, 471.7, 159.0)">т</text><text xml:space="preserve" font-family="TrebuchetMS" font-size="21.0" fill="#000000" transform="matrix(1.00, 0.00, -0.00, -1.00, 481.2, 159.0)">к</text><text xml:space="preserve" font-family="TrebuchetMS" font-size="21.0" fill="#000000" transform="matrix(1.00, 0.00, -0.00, -1.00, 492.1, 159.0)">л</text><text xml:space="preserve" font-family="TrebuchetMS" font-size="21.0" fill="#000000" transform="matrix(1.00, 0.00, -0.00, -1.00, 503.9, 159.0)">о</text><text xml:space="preserve" font-family="TrebuchetMS" font-size="21.0" fill="#000000" transform="matrix(1.00, 0.00, -0.00, -1.00, 515.2, 159.0)">н</text><text xml:space="preserve" font-family="TrebuchetMS" font-size="21.0" fill="#000000" transform="matrix(1.00, 0.00, -0.00, -1.00, 526.9, 159.0)">е</text><text xml:space="preserve" font-family="TrebuchetMS" font-size="21.0" fill="#000000" transform="matrix(1.00, 0.00, -0.00, -1.00, 538.4, 159.0)">н</text><text xml:space="preserve" font-family="TrebuchetMS" font-size="21.0" fill="#000000" transform="matrix(1.00, 0.00, -0.00, -1.00, 550.1, 159.0)">и</text><text xml:space="preserve" font-family="TrebuchetMS" font-size="21.0" fill="#000000" transform="matrix(1.00, 0.00, -0.00, -1.00, 562.1, 159.0)">е</text><text xml:space="preserve" font-family="TrebuchetMS" font-size="21.0" fill="#000000" transform="matrix(1.00, 0.00, -0.00, -1.00, 573.6, 159.0)"> </text><text xml:space="preserve" font-family="TrebuchetMS" font-size="21.0" fill="#000000" transform="matrix(1.00, 0.00, -0.00, -1.00, 579.9, 159.0)">д</text><text xml:space="preserve" font-family="TrebuchetMS" font-size="21.0" fill="#000000" transform="matrix(1.00, 0.00, -0.00, -1.00, 592.1, 159.0)">о</text><text xml:space="preserve" font-family="TrebuchetMS" font-size="21.0" fill="#000000" transform="matrix(1.00, 0.00, -0.00, -1.00, 603.4, 159.0)">х</text><text xml:space="preserve" font-family="TrebuchetMS" font-size="21.0" fill="#000000" transform="matrix(1.00, 0.00, -0.00, -1.00, 614.1, 159.0)">о</text><text xml:space="preserve" font-family="TrebuchetMS" font-size="21.0" fill="#000000" transform="matrix(1.00, 0.00, -0.00, -1.00, 625.3, 159.0)">д</text><text xml:space="preserve" font-family="TrebuchetMS" font-size="21.0" fill="#000000" transform="matrix(1.00, 0.00, -0.00, -1.00, 637.5, 159.0)">а</text><text xml:space="preserve" font-family="TrebuchetMS" font-size="21.0" fill="#000000" transform="matrix(1.00, 0.00, -0.00, -1.00, 648.3, 159.0)">.</text><text xml:space="preserve" font-family="TrebuchetMS" font-size="21.0" fill="#000000" transform="matrix(1.00, 0.00, -0.00, -1.00, 656.0, 159.0)"> </text><text xml:space="preserve" font-family="TrebuchetMS" font-size="12.0" fill="#000000" transform="matrix(1.00, 0.00, -0.00, -1.00, 662.2, 159.0)"> </text></g></svg>