<?xml version="1.0" encoding="UTF-8" standalone="no"?><svg xmlns="http://www.w3.org/2000/svg" xmlns:xlink="http://www.w3.org/1999/xlink" clip-rule="evenodd" stroke-miterlimit="4.00" viewBox="0 0 720 540"><desc>SVG generated by Keynote</desc><defs></defs><g transform="matrix(1.00, 0.00, -0.00, -1.00, 0.0, 540.0)"><g><clipPath id="clip-27"><path d="M 0.0 540.0 L 720.0 540.0 L 720.0 0.0 L 0.0 0.0 Z M 0.0 540.0 "></path></clipPath><g clip-path="url(#clip-27)"><image xlink:href="../../9F71FDD0-7D0B-48C6-983A-900A1F72ECDE/assets/36E35D0E8DCB2323862ECB049F917A5C.jpeg" width="720.00" height="539.00" transform="matrix(1.00, 0.00, -0.00, -1.00, 0.0, 540.0)"></image></g></g><g><clipPath id="clip-28"><path d="M 186.9 495.7 L 703.2 495.7 L 703.2 521.5 L 186.9 521.5 Z M 186.9 495.7 "></path></clipPath><g clip-path="url(#clip-28)"><text xml:space="preserve" font-family="TrebuchetMS" font-size="22.7" fill="#953734" transform="matrix(1.00, 0.00, -0.00, -1.00, 301.9, 500.6)">Г</text><text xml:space="preserve" font-family="TrebuchetMS" font-size="22.7" fill="#953734" transform="matrix(1.00, 0.00, -0.00, -1.00, 313.7, 500.6)">е</text><text xml:space="preserve" font-family="TrebuchetMS" font-size="22.7" fill="#953734" transform="matrix(1.00, 0.00, -0.00, -1.00, 326.1, 500.6)">н</text><text xml:space="preserve" font-family="TrebuchetMS" font-size="22.7" fill="#953734" transform="matrix(1.00, 0.00, -0.00, -1.00, 338.8, 500.6)">е</text><text xml:space="preserve" font-family="TrebuchetMS" font-size="22.7" fill="#953734" transform="matrix(1.00, 0.00, -0.00, -1.00, 351.3, 500.6)">т</text><text xml:space="preserve" font-family="TrebuchetMS" font-size="22.7" fill="#953734" transform="matrix(1.00, 0.00, -0.00, -1.00, 361.6, 500.6)">и</text><text xml:space="preserve" font-family="TrebuchetMS" font-size="22.7" fill="#953734" transform="matrix(1.00, 0.00, -0.00, -1.00, 374.5, 500.6)">ч</text><text xml:space="preserve" font-family="TrebuchetMS" font-size="22.7" fill="#953734" transform="matrix(1.00, 0.00, -0.00, -1.00, 386.6, 500.6)">е</text><text xml:space="preserve" font-family="TrebuchetMS" font-size="22.7" fill="#953734" transform="matrix(1.00, 0.00, -0.00, -1.00, 399.0, 500.6)">с</text><text xml:space="preserve" font-family="TrebuchetMS" font-size="22.7" fill="#953734" transform="matrix(1.00, 0.00, -0.00, -1.00, 410.3, 500.6)">к</text><text xml:space="preserve" font-family="TrebuchetMS" font-size="22.7" fill="#953734" transform="matrix(1.00, 0.00, -0.00, -1.00, 422.0, 500.6)">и</text><text xml:space="preserve" font-family="TrebuchetMS" font-size="22.7" fill="#953734" transform="matrix(1.00, 0.00, -0.00, -1.00, 435.0, 500.6)">е</text><text xml:space="preserve" font-family="TrebuchetMS" font-size="22.7" fill="#953734" transform="matrix(1.00, 0.00, -0.00, -1.00, 447.4, 500.6)"> </text><text xml:space="preserve" font-family="TrebuchetMS" font-size="22.7" fill="#953734" transform="matrix(1.00, 0.00, -0.00, -1.00, 454.3, 500.6)">о</text><text xml:space="preserve" font-family="TrebuchetMS" font-size="22.7" fill="#953734" transform="matrix(1.00, 0.00, -0.00, -1.00, 466.5, 500.6)">п</text><text xml:space="preserve" font-family="TrebuchetMS" font-size="22.7" fill="#953734" transform="matrix(1.00, 0.00, -0.00, -1.00, 478.9, 500.6)">е</text><text xml:space="preserve" font-family="TrebuchetMS" font-size="22.7" fill="#953734" transform="matrix(1.00, 0.00, -0.00, -1.00, 491.3, 500.6)">р</text><text xml:space="preserve" font-family="TrebuchetMS" font-size="22.7" fill="#953734" transform="matrix(1.00, 0.00, -0.00, -1.00, 504.0, 500.6)">а</text><text xml:space="preserve" font-family="TrebuchetMS" font-size="22.7" fill="#953734" transform="matrix(1.00, 0.00, -0.00, -1.00, 515.7, 500.6)">т</text><text xml:space="preserve" font-family="TrebuchetMS" font-size="22.7" fill="#953734" transform="matrix(1.00, 0.00, -0.00, -1.00, 526.0, 500.6)">о</text><text xml:space="preserve" font-family="TrebuchetMS" font-size="22.7" fill="#953734" transform="matrix(1.00, 0.00, -0.00, -1.00, 538.2, 500.6)">р</text><text xml:space="preserve" font-family="TrebuchetMS" font-size="22.7" fill="#953734" transform="matrix(1.00, 0.00, -0.00, -1.00, 550.8, 500.6)">ы</text><text xml:space="preserve" font-family="TrebuchetMS" font-size="22.7" fill="#953734" transform="matrix(1.00, 0.00, -0.00, -1.00, 566.4, 500.6)">:</text><text xml:space="preserve" font-family="TrebuchetMS" font-size="22.7" fill="#953734" transform="matrix(1.00, 0.00, -0.00, -1.00, 574.7, 500.6)"> </text><text xml:space="preserve" font-family="TrebuchetMS" font-size="22.7" fill="#953734" transform="matrix(1.00, 0.00, -0.00, -1.00, 581.6, 500.6)"> </text><text xml:space="preserve" font-family="TrebuchetMS" font-size="22.7" fill="#953734" transform="matrix(1.00, 0.00, -0.00, -1.00, 588.4, 500.6)">к</text><text xml:space="preserve" font-family="TrebuchetMS" font-size="22.7" fill="#953734" transform="matrix(1.00, 0.00, -0.00, -1.00, 600.1, 500.6)">р</text><text xml:space="preserve" font-family="TrebuchetMS" font-size="22.7" fill="#953734" transform="matrix(1.00, 0.00, -0.00, -1.00, 612.8, 500.6)">о</text><text xml:space="preserve" font-family="TrebuchetMS" font-size="22.7" fill="#953734" transform="matrix(1.00, 0.00, -0.00, -1.00, 625.0, 500.6)">с</text><text xml:space="preserve" font-family="TrebuchetMS" font-size="22.7" fill="#953734" transform="matrix(1.00, 0.00, -0.00, -1.00, 636.3, 500.6)">с</text><text xml:space="preserve" font-family="TrebuchetMS" font-size="22.7" fill="#953734" transform="matrix(1.00, 0.00, -0.00, -1.00, 647.6, 500.6)">о</text><text xml:space="preserve" font-family="TrebuchetMS" font-size="22.7" fill="#953734" transform="matrix(1.00, 0.00, -0.00, -1.00, 659.8, 500.6)">в</text><text xml:space="preserve" font-family="TrebuchetMS" font-size="22.7" fill="#953734" transform="matrix(1.00, 0.00, -0.00, -1.00, 671.5, 500.6)">е</text><text xml:space="preserve" font-family="TrebuchetMS" font-size="22.7" fill="#953734" transform="matrix(1.00, 0.00, -0.00, -1.00, 684.0, 500.6)">р</text></g></g><text xml:space="preserve" font-family="TrebuchetMS" font-size="12.0" fill="#878787" transform="matrix(1.00, 0.00, -0.00, -1.00, 40.0, 14.0)">8</text><image xlink:href="../../76FABA46-B5A4-40E0-8FFF-276823643B4C/assets/68D41CE4B3C17007ABF4B18071A8B2D2.png" width="547.00" height="376.00" transform="matrix(1.00, 0.00, -0.00, -1.00, 87.0, 458.0)"></image></g></svg>