<?xml version="1.0" encoding="UTF-8" standalone="no"?><svg xmlns="http://www.w3.org/2000/svg" xmlns:xlink="http://www.w3.org/1999/xlink" clip-rule="evenodd" stroke-miterlimit="4.00" viewBox="0 0 720 540"><desc>SVG generated by Keynote</desc><defs></defs><g transform="matrix(1.00, 0.00, -0.00, -1.00, 0.0, 540.0)"><g><clipPath id="clip-93"><path d="M 0.0 540.0 L 720.0 540.0 L 720.0 0.0 L 0.0 0.0 Z M 0.0 540.0 "></path></clipPath><g clip-path="url(#clip-93)"><image xlink:href="../../9F71FDD0-7D0B-48C6-983A-900A1F72ECDE/assets/36E35D0E8DCB2323862ECB049F917A5C.jpeg" width="720.00" height="539.00" transform="matrix(1.00, 0.00, -0.00, -1.00, 0.0, 540.0)"></image></g></g><g><clipPath id="clip-94"><path d="M 186.9 495.7 L 703.2 495.7 L 703.2 521.5 L 186.9 521.5 Z M 186.9 495.7 "></path></clipPath><g clip-path="url(#clip-94)"><text xml:space="preserve" font-family="TrebuchetMS" font-size="22.7" fill="#953734" transform="matrix(1.00, 0.00, -0.00, -1.00, 314.0, 500.6)">Т</text><text xml:space="preserve" font-family="TrebuchetMS" font-size="22.7" fill="#953734" transform="matrix(1.00, 0.00, -0.00, -1.00, 328.1, 500.6)">е</text><text xml:space="preserve" font-family="TrebuchetMS" font-size="22.7" fill="#953734" transform="matrix(1.00, 0.00, -0.00, -1.00, 340.5, 500.6)">с</text><text xml:space="preserve" font-family="TrebuchetMS" font-size="22.7" fill="#953734" transform="matrix(1.00, 0.00, -0.00, -1.00, 351.8, 500.6)">т</text><text xml:space="preserve" font-family="TrebuchetMS" font-size="22.7" fill="#953734" transform="matrix(1.00, 0.00, -0.00, -1.00, 362.1, 500.6)">и</text><text xml:space="preserve" font-family="TrebuchetMS" font-size="22.7" fill="#953734" transform="matrix(1.00, 0.00, -0.00, -1.00, 375.1, 500.6)">р</text><text xml:space="preserve" font-family="TrebuchetMS" font-size="22.7" fill="#953734" transform="matrix(1.00, 0.00, -0.00, -1.00, 387.7, 500.6)">о</text><text xml:space="preserve" font-family="TrebuchetMS" font-size="22.7" fill="#953734" transform="matrix(1.00, 0.00, -0.00, -1.00, 399.9, 500.6)">в</text><text xml:space="preserve" font-family="TrebuchetMS" font-size="22.7" fill="#953734" transform="matrix(1.00, 0.00, -0.00, -1.00, 411.7, 500.6)">а</text><text xml:space="preserve" font-family="TrebuchetMS" font-size="22.7" fill="#953734" transform="matrix(1.00, 0.00, -0.00, -1.00, 423.3, 500.6)">н</text><text xml:space="preserve" font-family="TrebuchetMS" font-size="22.7" fill="#953734" transform="matrix(1.00, 0.00, -0.00, -1.00, 436.0, 500.6)">и</text><text xml:space="preserve" font-family="TrebuchetMS" font-size="22.7" fill="#953734" transform="matrix(1.00, 0.00, -0.00, -1.00, 449.0, 500.6)">е</text><text xml:space="preserve" font-family="TrebuchetMS" font-size="22.7" fill="#953734" transform="matrix(1.00, 0.00, -0.00, -1.00, 461.5, 500.6)">:</text><text xml:space="preserve" font-family="TrebuchetMS" font-size="22.7" fill="#953734" transform="matrix(1.00, 0.00, -0.00, -1.00, 469.8, 500.6)"> </text><text xml:space="preserve" font-family="TrebuchetMS" font-size="22.7" fill="#953734" transform="matrix(1.00, 0.00, -0.00, -1.00, 476.6, 500.6)">к</text><text xml:space="preserve" font-family="TrebuchetMS" font-size="22.7" fill="#953734" transform="matrix(1.00, 0.00, -0.00, -1.00, 488.4, 500.6)">о</text><text xml:space="preserve" font-family="TrebuchetMS" font-size="22.7" fill="#953734" transform="matrix(1.00, 0.00, -0.00, -1.00, 500.6, 500.6)">э</text><text xml:space="preserve" font-family="TrebuchetMS" font-size="22.7" fill="#953734" transform="matrix(1.00, 0.00, -0.00, -1.00, 511.9, 500.6)">ф</text><text xml:space="preserve" font-family="TrebuchetMS" font-size="22.7" fill="#953734" transform="matrix(1.00, 0.00, -0.00, -1.00, 529.5, 500.6)">ф</text><text xml:space="preserve" font-family="TrebuchetMS" font-size="22.7" fill="#953734" transform="matrix(1.00, 0.00, -0.00, -1.00, 547.1, 500.6)">и</text><text xml:space="preserve" font-family="TrebuchetMS" font-size="22.7" fill="#953734" transform="matrix(1.00, 0.00, -0.00, -1.00, 560.1, 500.6)">ц</text><text xml:space="preserve" font-family="TrebuchetMS" font-size="22.7" fill="#953734" transform="matrix(1.00, 0.00, -0.00, -1.00, 572.6, 500.6)">и</text><text xml:space="preserve" font-family="TrebuchetMS" font-size="22.7" fill="#953734" transform="matrix(1.00, 0.00, -0.00, -1.00, 585.6, 500.6)">е</text><text xml:space="preserve" font-family="TrebuchetMS" font-size="22.7" fill="#953734" transform="matrix(1.00, 0.00, -0.00, -1.00, 598.1, 500.6)">н</text><text xml:space="preserve" font-family="TrebuchetMS" font-size="22.7" fill="#953734" transform="matrix(1.00, 0.00, -0.00, -1.00, 610.8, 500.6)">т</text><text xml:space="preserve" font-family="TrebuchetMS" font-size="22.7" fill="#953734" transform="matrix(1.00, 0.00, -0.00, -1.00, 621.1, 500.6)"> </text><text xml:space="preserve" font-family="TrebuchetMS" font-size="22.7" fill="#953734" transform="matrix(1.00, 0.00, -0.00, -1.00, 627.9, 500.6)">Ш</text><text xml:space="preserve" font-family="TrebuchetMS" font-size="22.7" fill="#953734" transform="matrix(1.00, 0.00, -0.00, -1.00, 648.2, 500.6)">а</text><text xml:space="preserve" font-family="TrebuchetMS" font-size="22.7" fill="#953734" transform="matrix(1.00, 0.00, -0.00, -1.00, 659.9, 500.6)">р</text><text xml:space="preserve" font-family="TrebuchetMS" font-size="22.7" fill="#953734" transform="matrix(1.00, 0.00, -0.00, -1.00, 672.5, 500.6)">п</text><text xml:space="preserve" font-family="TrebuchetMS" font-size="22.7" fill="#953734" transform="matrix(1.00, 0.00, -0.00, -1.00, 684.9, 500.6)">а</text></g></g><text xml:space="preserve" font-family="TrebuchetMS" font-size="12.0" fill="#878787" transform="matrix(1.00, 0.00, -0.00, -1.00, 40.0, 14.0)">1</text><text xml:space="preserve" font-family="TrebuchetMS" font-size="12.0" fill="#878787" transform="matrix(1.00, 0.00, -0.00, -1.00, 46.3, 14.0)">4</text><image xlink:href="F404BD51C22FFF2C9A5DC3F42B40AEE4.png" width="720.00" height="445.00" transform="matrix(1.00, 0.00, -0.00, -1.00, 0.0, 493.0)"></image></g></svg>