<?xml version="1.0" encoding="UTF-8" standalone="no"?><svg xmlns="http://www.w3.org/2000/svg" xmlns:xlink="http://www.w3.org/1999/xlink" clip-rule="evenodd" stroke-miterlimit="4.00" viewBox="0 0 720 540"><desc>SVG generated by Keynote</desc><defs></defs><g transform="matrix(1.00, 0.00, -0.00, -1.00, 0.0, 540.0)"><g><clipPath id="clip-91"><path d="M 0.0 540.0 L 720.0 540.0 L 720.0 0.0 L 0.0 0.0 Z M 0.0 540.0 "></path></clipPath><g clip-path="url(#clip-91)"><image xlink:href="../../9F71FDD0-7D0B-48C6-983A-900A1F72ECDE/assets/36E35D0E8DCB2323862ECB049F917A5C.jpeg" width="720.00" height="539.00" transform="matrix(1.00, 0.00, -0.00, -1.00, 0.0, 540.0)"></image></g></g><g><clipPath id="clip-92"><path d="M 186.9 495.7 L 703.2 495.7 L 703.2 521.5 L 186.9 521.5 Z M 186.9 495.7 "></path></clipPath><g clip-path="url(#clip-92)"><text xml:space="preserve" font-family="TrebuchetMS" font-size="22.7" fill="#953734" transform="matrix(1.00, 0.00, -0.00, -1.00, 422.5, 500.6)">Д</text><text xml:space="preserve" font-family="TrebuchetMS" font-size="22.7" fill="#953734" transform="matrix(1.00, 0.00, -0.00, -1.00, 438.2, 500.6)">о</text><text xml:space="preserve" font-family="TrebuchetMS" font-size="22.7" fill="#953734" transform="matrix(1.00, 0.00, -0.00, -1.00, 450.4, 500.6)">п</text><text xml:space="preserve" font-family="TrebuchetMS" font-size="22.7" fill="#953734" transform="matrix(1.00, 0.00, -0.00, -1.00, 462.8, 500.6)">о</text><text xml:space="preserve" font-family="TrebuchetMS" font-size="22.7" fill="#953734" transform="matrix(1.00, 0.00, -0.00, -1.00, 475.0, 500.6)">л</text><text xml:space="preserve" font-family="TrebuchetMS" font-size="22.7" fill="#953734" transform="matrix(1.00, 0.00, -0.00, -1.00, 487.8, 500.6)">н</text><text xml:space="preserve" font-family="TrebuchetMS" font-size="22.7" fill="#953734" transform="matrix(1.00, 0.00, -0.00, -1.00, 500.5, 500.6)">и</text><text xml:space="preserve" font-family="TrebuchetMS" font-size="22.7" fill="#953734" transform="matrix(1.00, 0.00, -0.00, -1.00, 513.5, 500.6)">т</text><text xml:space="preserve" font-family="TrebuchetMS" font-size="22.7" fill="#953734" transform="matrix(1.00, 0.00, -0.00, -1.00, 523.8, 500.6)">е</text><text xml:space="preserve" font-family="TrebuchetMS" font-size="22.7" fill="#953734" transform="matrix(1.00, 0.00, -0.00, -1.00, 536.2, 500.6)">л</text><text xml:space="preserve" font-family="TrebuchetMS" font-size="22.7" fill="#953734" transform="matrix(1.00, 0.00, -0.00, -1.00, 549.0, 500.6)">ь</text><text xml:space="preserve" font-family="TrebuchetMS" font-size="22.7" fill="#953734" transform="matrix(1.00, 0.00, -0.00, -1.00, 560.5, 500.6)">н</text><text xml:space="preserve" font-family="TrebuchetMS" font-size="22.7" fill="#953734" transform="matrix(1.00, 0.00, -0.00, -1.00, 573.2, 500.6)">ы</text><text xml:space="preserve" font-family="TrebuchetMS" font-size="22.7" fill="#953734" transform="matrix(1.00, 0.00, -0.00, -1.00, 588.7, 500.6)">е</text><text xml:space="preserve" font-family="TrebuchetMS" font-size="22.7" fill="#953734" transform="matrix(1.00, 0.00, -0.00, -1.00, 601.2, 500.6)"> </text><text xml:space="preserve" font-family="TrebuchetMS" font-size="22.7" fill="#953734" transform="matrix(1.00, 0.00, -0.00, -1.00, 608.0, 500.6)">м</text><text xml:space="preserve" font-family="TrebuchetMS" font-size="22.7" fill="#953734" transform="matrix(1.00, 0.00, -0.00, -1.00, 623.5, 500.6)">е</text><text xml:space="preserve" font-family="TrebuchetMS" font-size="22.7" fill="#953734" transform="matrix(1.00, 0.00, -0.00, -1.00, 635.9, 500.6)">т</text><text xml:space="preserve" font-family="TrebuchetMS" font-size="22.7" fill="#953734" transform="matrix(1.00, 0.00, -0.00, -1.00, 646.2, 500.6)">р</text><text xml:space="preserve" font-family="TrebuchetMS" font-size="22.7" fill="#953734" transform="matrix(1.00, 0.00, -0.00, -1.00, 658.9, 500.6)">и</text><text xml:space="preserve" font-family="TrebuchetMS" font-size="22.7" fill="#953734" transform="matrix(1.00, 0.00, -0.00, -1.00, 671.9, 500.6)">к</text><text xml:space="preserve" font-family="TrebuchetMS" font-size="22.7" fill="#953734" transform="matrix(1.00, 0.00, -0.00, -1.00, 683.6, 500.6)">и</text></g></g><text xml:space="preserve" font-family="ArialMT" font-size="27.0" fill="#000000" transform="matrix(1.00, 0.00, -0.00, -1.00, 70.5, 341.1)">•</text><text xml:space="preserve" font-family="TrebuchetMS" font-size="27.0" fill="#000000" transform="matrix(1.00, 0.00, -0.00, -1.00, 97.0, 341.0)">П</text><text xml:space="preserve" font-family="TrebuchetMS" font-size="27.0" fill="#000000" transform="matrix(1.00, 0.00, -0.00, -1.00, 114.1, 341.0)">р</text><text xml:space="preserve" font-family="TrebuchetMS" font-size="27.0" fill="#000000" transform="matrix(1.00, 0.00, -0.00, -1.00, 129.2, 341.0)">и</text><text xml:space="preserve" font-family="TrebuchetMS" font-size="27.0" fill="#000000" transform="matrix(1.00, 0.00, -0.00, -1.00, 144.6, 341.0)">б</text><text xml:space="preserve" font-family="TrebuchetMS" font-size="27.0" fill="#000000" transform="matrix(1.00, 0.00, -0.00, -1.00, 159.5, 341.0)">ы</text><text xml:space="preserve" font-family="TrebuchetMS" font-size="27.0" fill="#000000" transform="matrix(1.00, 0.00, -0.00, -1.00, 178.0, 341.0)">л</text><text xml:space="preserve" font-family="TrebuchetMS" font-size="27.0" fill="#000000" transform="matrix(1.00, 0.00, -0.00, -1.00, 193.2, 341.0)">ь</text><text xml:space="preserve" font-family="TrebuchetMS" font-size="27.0" fill="#000000" transform="matrix(1.00, 0.00, -0.00, -1.00, 206.8, 341.0)"> </text><text xml:space="preserve" font-family="TrebuchetMS" font-size="27.0" fill="#000000" transform="matrix(1.00, 0.00, -0.00, -1.00, 215.0, 341.0)">(</text><text xml:space="preserve" font-family="TrebuchetMS" font-size="27.0" fill="#000000" transform="matrix(1.00, 0.00, -0.00, -1.00, 224.9, 341.0)">R</text><text xml:space="preserve" font-family="TrebuchetMS" font-size="27.0" fill="#000000" transform="matrix(1.00, 0.00, -0.00, -1.00, 239.5, 341.0)">e</text><text xml:space="preserve" font-family="TrebuchetMS" font-size="27.0" fill="#000000" transform="matrix(1.00, 0.00, -0.00, -1.00, 254.3, 341.0)">t</text><text xml:space="preserve" font-family="TrebuchetMS" font-size="27.0" fill="#000000" transform="matrix(1.00, 0.00, -0.00, -1.00, 265.0, 341.0)">u</text><text xml:space="preserve" font-family="TrebuchetMS" font-size="27.0" fill="#000000" transform="matrix(1.00, 0.00, -0.00, -1.00, 279.7, 341.0)">r</text><text xml:space="preserve" font-family="TrebuchetMS" font-size="27.0" fill="#000000" transform="matrix(1.00, 0.00, -0.00, -1.00, 290.2, 341.0)">n</text><text xml:space="preserve" font-family="TrebuchetMS" font-size="27.0" fill="#000000" transform="matrix(1.00, 0.00, -0.00, -1.00, 305.0, 341.0)">)</text><text xml:space="preserve" font-family="TrebuchetMS" font-size="27.0" fill="#000000" transform="matrix(1.00, 0.00, -0.00, -1.00, 314.9, 341.0)"> </text><text xml:space="preserve" font-family="ArialMT" font-size="27.0" fill="#000000" transform="matrix(1.00, 0.00, -0.00, -1.00, 70.5, 302.4)">•</text><text xml:space="preserve" font-family="TrebuchetMS" font-size="27.0" fill="#000000" transform="matrix(1.00, 0.00, -0.00, -1.00, 97.0, 302.0)">М</text><text xml:space="preserve" font-family="TrebuchetMS" font-size="27.0" fill="#000000" transform="matrix(1.00, 0.00, -0.00, -1.00, 117.1, 302.0)">а</text><text xml:space="preserve" font-family="TrebuchetMS" font-size="27.0" fill="#000000" transform="matrix(1.00, 0.00, -0.00, -1.00, 130.9, 302.0)">к</text><text xml:space="preserve" font-family="TrebuchetMS" font-size="27.0" fill="#000000" transform="matrix(1.00, 0.00, -0.00, -1.00, 144.9, 302.0)">с</text><text xml:space="preserve" font-family="TrebuchetMS" font-size="27.0" fill="#000000" transform="matrix(1.00, 0.00, -0.00, -1.00, 158.3, 302.0)">и</text><text xml:space="preserve" font-family="TrebuchetMS" font-size="27.0" fill="#000000" transform="matrix(1.00, 0.00, -0.00, -1.00, 173.7, 302.0)">м</text><text xml:space="preserve" font-family="TrebuchetMS" font-size="27.0" fill="#000000" transform="matrix(1.00, 0.00, -0.00, -1.00, 192.1, 302.0)">а</text><text xml:space="preserve" font-family="TrebuchetMS" font-size="27.0" fill="#000000" transform="matrix(1.00, 0.00, -0.00, -1.00, 206.0, 302.0)">л</text><text xml:space="preserve" font-family="TrebuchetMS" font-size="27.0" fill="#000000" transform="matrix(1.00, 0.00, -0.00, -1.00, 221.2, 302.0)">ь</text><text xml:space="preserve" font-family="TrebuchetMS" font-size="27.0" fill="#000000" transform="matrix(1.00, 0.00, -0.00, -1.00, 234.9, 302.0)">н</text><text xml:space="preserve" font-family="TrebuchetMS" font-size="27.0" fill="#000000" transform="matrix(1.00, 0.00, -0.00, -1.00, 250.0, 302.0)">а</text><text xml:space="preserve" font-family="TrebuchetMS" font-size="27.0" fill="#000000" transform="matrix(1.00, 0.00, -0.00, -1.00, 263.8, 302.0)">я</text><text xml:space="preserve" font-family="TrebuchetMS" font-size="27.0" fill="#000000" transform="matrix(1.00, 0.00, -0.00, -1.00, 278.0, 302.0)"> </text><text xml:space="preserve" font-family="TrebuchetMS" font-size="27.0" fill="#000000" transform="matrix(1.00, 0.00, -0.00, -1.00, 286.1, 302.0)">п</text><text xml:space="preserve" font-family="TrebuchetMS" font-size="27.0" fill="#000000" transform="matrix(1.00, 0.00, -0.00, -1.00, 300.8, 302.0)">р</text><text xml:space="preserve" font-family="TrebuchetMS" font-size="27.0" fill="#000000" transform="matrix(1.00, 0.00, -0.00, -1.00, 315.9, 302.0)">о</text><text xml:space="preserve" font-family="TrebuchetMS" font-size="27.0" fill="#000000" transform="matrix(1.00, 0.00, -0.00, -1.00, 330.4, 302.0)">с</text><text xml:space="preserve" font-family="TrebuchetMS" font-size="27.0" fill="#000000" transform="matrix(1.00, 0.00, -0.00, -1.00, 343.8, 302.0)">а</text><text xml:space="preserve" font-family="TrebuchetMS" font-size="27.0" fill="#000000" transform="matrix(1.00, 0.00, -0.00, -1.00, 357.7, 302.0)">д</text><text xml:space="preserve" font-family="TrebuchetMS" font-size="27.0" fill="#000000" transform="matrix(1.00, 0.00, -0.00, -1.00, 373.3, 302.0)">к</text><text xml:space="preserve" font-family="TrebuchetMS" font-size="27.0" fill="#000000" transform="matrix(1.00, 0.00, -0.00, -1.00, 387.2, 302.0)">а</text><text xml:space="preserve" font-family="TrebuchetMS" font-size="27.0" fill="#000000" transform="matrix(1.00, 0.00, -0.00, -1.00, 401.1, 302.0)"> </text><text xml:space="preserve" font-family="TrebuchetMS" font-size="27.0" fill="#000000" transform="matrix(1.00, 0.00, -0.00, -1.00, 409.2, 302.0)">(</text><text xml:space="preserve" font-family="TrebuchetMS" font-size="27.0" fill="#000000" transform="matrix(1.00, 0.00, -0.00, -1.00, 419.2, 302.0)">M</text><text xml:space="preserve" font-family="TrebuchetMS" font-size="27.0" fill="#000000" transform="matrix(1.00, 0.00, -0.00, -1.00, 438.3, 302.0)">a</text><text xml:space="preserve" font-family="TrebuchetMS" font-size="27.0" fill="#000000" transform="matrix(1.00, 0.00, -0.00, -1.00, 452.5, 302.0)">x</text><text xml:space="preserve" font-family="TrebuchetMS" font-size="27.0" fill="#000000" transform="matrix(1.00, 0.00, -0.00, -1.00, 466.0, 302.0)"> </text><text xml:space="preserve" font-family="TrebuchetMS" font-size="27.0" fill="#000000" transform="matrix(1.00, 0.00, -0.00, -1.00, 474.2, 302.0)">d</text><text xml:space="preserve" font-family="TrebuchetMS" font-size="27.0" fill="#000000" transform="matrix(1.00, 0.00, -0.00, -1.00, 489.2, 302.0)">r</text><text xml:space="preserve" font-family="TrebuchetMS" font-size="27.0" fill="#000000" transform="matrix(1.00, 0.00, -0.00, -1.00, 499.7, 302.0)">a</text><text xml:space="preserve" font-family="TrebuchetMS" font-size="27.0" fill="#000000" transform="matrix(1.00, 0.00, -0.00, -1.00, 513.9, 302.0)">w</text><text xml:space="preserve" font-family="TrebuchetMS" font-size="27.0" fill="#000000" transform="matrix(1.00, 0.00, -0.00, -1.00, 534.0, 302.0)">d</text><text xml:space="preserve" font-family="TrebuchetMS" font-size="27.0" fill="#000000" transform="matrix(1.00, 0.00, -0.00, -1.00, 549.1, 302.0)">o</text><text xml:space="preserve" font-family="TrebuchetMS" font-size="27.0" fill="#000000" transform="matrix(1.00, 0.00, -0.00, -1.00, 563.5, 302.0)">w</text><text xml:space="preserve" font-family="TrebuchetMS" font-size="27.0" fill="#000000" transform="matrix(1.00, 0.00, -0.00, -1.00, 583.6, 302.0)">n</text><text xml:space="preserve" font-family="TrebuchetMS" font-size="27.0" fill="#000000" transform="matrix(1.00, 0.00, -0.00, -1.00, 598.4, 302.0)">)</text><text xml:space="preserve" font-family="TrebuchetMS" font-size="27.0" fill="#000000" transform="matrix(1.00, 0.00, -0.00, -1.00, 608.2, 302.0)"> </text><text xml:space="preserve" font-family="ArialMT" font-size="27.0" fill="#000000" transform="matrix(1.00, 0.00, -0.00, -1.00, 70.5, 263.7)">•</text><text xml:space="preserve" font-family="TrebuchetMS" font-size="27.0" fill="#000000" transform="matrix(1.00, 0.00, -0.00, -1.00, 97.0, 264.0)">К</text><text xml:space="preserve" font-family="TrebuchetMS" font-size="27.0" fill="#000000" transform="matrix(1.00, 0.00, -0.00, -1.00, 113.5, 264.0)">о</text><text xml:space="preserve" font-family="TrebuchetMS" font-size="27.0" fill="#000000" transform="matrix(1.00, 0.00, -0.00, -1.00, 128.0, 264.0)">л</text><text xml:space="preserve" font-family="TrebuchetMS" font-size="27.0" fill="#000000" transform="matrix(1.00, 0.00, -0.00, -1.00, 143.2, 264.0)">и</text><text xml:space="preserve" font-family="TrebuchetMS" font-size="27.0" fill="#000000" transform="matrix(1.00, 0.00, -0.00, -1.00, 158.7, 264.0)">ч</text><text xml:space="preserve" font-family="TrebuchetMS" font-size="27.0" fill="#000000" transform="matrix(1.00, 0.00, -0.00, -1.00, 173.0, 264.0)">е</text><text xml:space="preserve" font-family="TrebuchetMS" font-size="27.0" fill="#000000" transform="matrix(1.00, 0.00, -0.00, -1.00, 187.7, 264.0)">с</text><text xml:space="preserve" font-family="TrebuchetMS" font-size="27.0" fill="#000000" transform="matrix(1.00, 0.00, -0.00, -1.00, 201.2, 264.0)">т</text><text xml:space="preserve" font-family="TrebuchetMS" font-size="27.0" fill="#000000" transform="matrix(1.00, 0.00, -0.00, -1.00, 213.4, 264.0)">в</text><text xml:space="preserve" font-family="TrebuchetMS" font-size="27.0" fill="#000000" transform="matrix(1.00, 0.00, -0.00, -1.00, 227.3, 264.0)">о</text><text xml:space="preserve" font-family="TrebuchetMS" font-size="27.0" fill="#000000" transform="matrix(1.00, 0.00, -0.00, -1.00, 241.8, 264.0)"> </text><text xml:space="preserve" font-family="TrebuchetMS" font-size="27.0" fill="#000000" transform="matrix(1.00, 0.00, -0.00, -1.00, 250.0, 264.0)">т</text><text xml:space="preserve" font-family="TrebuchetMS" font-size="27.0" fill="#000000" transform="matrix(1.00, 0.00, -0.00, -1.00, 262.2, 264.0)">о</text><text xml:space="preserve" font-family="TrebuchetMS" font-size="27.0" fill="#000000" transform="matrix(1.00, 0.00, -0.00, -1.00, 276.7, 264.0)">р</text><text xml:space="preserve" font-family="TrebuchetMS" font-size="27.0" fill="#000000" transform="matrix(1.00, 0.00, -0.00, -1.00, 291.8, 264.0)">г</text><text xml:space="preserve" font-family="TrebuchetMS" font-size="27.0" fill="#000000" transform="matrix(1.00, 0.00, -0.00, -1.00, 303.5, 264.0)">о</text><text xml:space="preserve" font-family="TrebuchetMS" font-size="27.0" fill="#000000" transform="matrix(1.00, 0.00, -0.00, -1.00, 318.0, 264.0)">в</text><text xml:space="preserve" font-family="TrebuchetMS" font-size="27.0" fill="#000000" transform="matrix(1.00, 0.00, -0.00, -1.00, 331.9, 264.0)"> </text><text xml:space="preserve" font-family="ArialMT" font-size="27.0" fill="#000000" transform="matrix(1.00, 0.00, -0.00, -1.00, 70.5, 225.0)">•</text><text xml:space="preserve" font-family="TrebuchetMS" font-size="27.0" fill="#000000" transform="matrix(1.00, 0.00, -0.00, -1.00, 97.0, 225.0)">B</text><text xml:space="preserve" font-family="TrebuchetMS" font-size="27.0" fill="#000000" transform="matrix(1.00, 0.00, -0.00, -1.00, 112.3, 225.0)">u</text><text xml:space="preserve" font-family="TrebuchetMS" font-size="27.0" fill="#000000" transform="matrix(1.00, 0.00, -0.00, -1.00, 127.1, 225.0)">y</text><text xml:space="preserve" font-family="TrebuchetMS" font-size="27.0" fill="#000000" transform="matrix(1.00, 0.00, -0.00, -1.00, 140.4, 225.0)"> </text><text xml:space="preserve" font-family="TrebuchetMS" font-size="27.0" fill="#000000" transform="matrix(1.00, 0.00, -0.00, -1.00, 148.5, 225.0)">a</text><text xml:space="preserve" font-family="TrebuchetMS" font-size="27.0" fill="#000000" transform="matrix(1.00, 0.00, -0.00, -1.00, 162.7, 225.0)">n</text><text xml:space="preserve" font-family="TrebuchetMS" font-size="27.0" fill="#000000" transform="matrix(1.00, 0.00, -0.00, -1.00, 177.5, 225.0)">d</text><text xml:space="preserve" font-family="TrebuchetMS" font-size="27.0" fill="#000000" transform="matrix(1.00, 0.00, -0.00, -1.00, 192.5, 225.0)"> </text><text xml:space="preserve" font-family="TrebuchetMS" font-size="27.0" fill="#000000" transform="matrix(1.00, 0.00, -0.00, -1.00, 200.7, 225.0)">H</text><text xml:space="preserve" font-family="TrebuchetMS" font-size="27.0" fill="#000000" transform="matrix(1.00, 0.00, -0.00, -1.00, 218.3, 225.0)">o</text><text xml:space="preserve" font-family="TrebuchetMS" font-size="27.0" fill="#000000" transform="matrix(1.00, 0.00, -0.00, -1.00, 232.8, 225.0)">l</text><text xml:space="preserve" font-family="TrebuchetMS" font-size="27.0" fill="#000000" transform="matrix(1.00, 0.00, -0.00, -1.00, 240.8, 225.0)">d</text><text xml:space="preserve" font-family="TrebuchetMS" font-size="27.0" fill="#000000" transform="matrix(1.00, 0.00, -0.00, -1.00, 255.8, 225.0)"> </text><text xml:space="preserve" font-family="TrebuchetMS" font-size="27.0" fill="#000000" transform="matrix(1.00, 0.00, -0.00, -1.00, 263.9, 225.0)">с</text><text xml:space="preserve" font-family="TrebuchetMS" font-size="27.0" fill="#000000" transform="matrix(1.00, 0.00, -0.00, -1.00, 277.3, 225.0)">р</text><text xml:space="preserve" font-family="TrebuchetMS" font-size="27.0" fill="#000000" transform="matrix(1.00, 0.00, -0.00, -1.00, 292.4, 225.0)">а</text><text xml:space="preserve" font-family="TrebuchetMS" font-size="27.0" fill="#000000" transform="matrix(1.00, 0.00, -0.00, -1.00, 306.2, 225.0)">в</text><text xml:space="preserve" font-family="TrebuchetMS" font-size="27.0" fill="#000000" transform="matrix(1.00, 0.00, -0.00, -1.00, 320.2, 225.0)">н</text><text xml:space="preserve" font-family="TrebuchetMS" font-size="27.0" fill="#000000" transform="matrix(1.00, 0.00, -0.00, -1.00, 335.3, 225.0)">е</text><text xml:space="preserve" font-family="TrebuchetMS" font-size="27.0" fill="#000000" transform="matrix(1.00, 0.00, -0.00, -1.00, 350.0, 225.0)">н</text><text xml:space="preserve" font-family="TrebuchetMS" font-size="27.0" fill="#000000" transform="matrix(1.00, 0.00, -0.00, -1.00, 365.1, 225.0)">и</text><text xml:space="preserve" font-family="TrebuchetMS" font-size="27.0" fill="#000000" transform="matrix(1.00, 0.00, -0.00, -1.00, 380.6, 225.0)">е</text><text xml:space="preserve" font-family="TrebuchetMS" font-size="12.0" fill="#878787" transform="matrix(1.00, 0.00, -0.00, -1.00, 40.0, 14.0)">1</text><text xml:space="preserve" font-family="TrebuchetMS" font-size="12.0" fill="#878787" transform="matrix(1.00, 0.00, -0.00, -1.00, 46.3, 14.0)">3</text></g></svg>