<?xml version="1.0" encoding="UTF-8" standalone="no"?><svg xmlns="http://www.w3.org/2000/svg" xmlns:xlink="http://www.w3.org/1999/xlink" clip-rule="evenodd" stroke-miterlimit="4.00" viewBox="0 0 720 540"><desc>SVG generated by Keynote</desc><defs></defs><g transform="matrix(1.00, 0.00, -0.00, -1.00, 0.0, 540.0)"><g><clipPath id="clip-7"><path d="M 0.0 540.0 L 720.0 540.0 L 720.0 0.0 L 0.0 0.0 Z M 0.0 540.0 "></path></clipPath><g clip-path="url(#clip-7)"><image xlink:href="../../9F71FDD0-7D0B-48C6-983A-900A1F72ECDE/assets/36E35D0E8DCB2323862ECB049F917A5C.jpeg" width="720.00" height="539.00" transform="matrix(1.00, 0.00, -0.00, -1.00, 0.0, 540.0)"></image></g></g><g><clipPath id="clip-8"><path d="M 186.9 495.7 L 703.2 495.7 L 703.2 521.5 L 186.9 521.5 Z M 186.9 495.7 "></path></clipPath><g clip-path="url(#clip-8)"><text xml:space="preserve" font-family="TrebuchetMS" font-size="22.7" fill="#953734" transform="matrix(1.00, 0.00, -0.00, -1.00, 438.8, 500.6)">С</text><text xml:space="preserve" font-family="TrebuchetMS" font-size="22.7" fill="#953734" transform="matrix(1.00, 0.00, -0.00, -1.00, 452.2, 500.6)">у</text><text xml:space="preserve" font-family="TrebuchetMS" font-size="22.7" fill="#953734" transform="matrix(1.00, 0.00, -0.00, -1.00, 463.5, 500.6)">щ</text><text xml:space="preserve" font-family="TrebuchetMS" font-size="22.7" fill="#953734" transform="matrix(1.00, 0.00, -0.00, -1.00, 481.0, 500.6)">е</text><text xml:space="preserve" font-family="TrebuchetMS" font-size="22.7" fill="#953734" transform="matrix(1.00, 0.00, -0.00, -1.00, 493.5, 500.6)">с</text><text xml:space="preserve" font-family="TrebuchetMS" font-size="22.7" fill="#953734" transform="matrix(1.00, 0.00, -0.00, -1.00, 504.8, 500.6)">т</text><text xml:space="preserve" font-family="TrebuchetMS" font-size="22.7" fill="#953734" transform="matrix(1.00, 0.00, -0.00, -1.00, 515.0, 500.6)">в</text><text xml:space="preserve" font-family="TrebuchetMS" font-size="22.7" fill="#953734" transform="matrix(1.00, 0.00, -0.00, -1.00, 526.8, 500.6)">у</text><text xml:space="preserve" font-family="TrebuchetMS" font-size="22.7" fill="#953734" transform="matrix(1.00, 0.00, -0.00, -1.00, 538.1, 500.6)">ю</text><text xml:space="preserve" font-family="TrebuchetMS" font-size="22.7" fill="#953734" transform="matrix(1.00, 0.00, -0.00, -1.00, 554.5, 500.6)">щ</text><text xml:space="preserve" font-family="TrebuchetMS" font-size="22.7" fill="#953734" transform="matrix(1.00, 0.00, -0.00, -1.00, 572.0, 500.6)">и</text><text xml:space="preserve" font-family="TrebuchetMS" font-size="22.7" fill="#953734" transform="matrix(1.00, 0.00, -0.00, -1.00, 585.0, 500.6)">е</text><text xml:space="preserve" font-family="TrebuchetMS" font-size="22.7" fill="#953734" transform="matrix(1.00, 0.00, -0.00, -1.00, 597.4, 500.6)"> </text><text xml:space="preserve" font-family="TrebuchetMS" font-size="22.7" fill="#953734" transform="matrix(1.00, 0.00, -0.00, -1.00, 604.3, 500.6)">р</text><text xml:space="preserve" font-family="TrebuchetMS" font-size="22.7" fill="#953734" transform="matrix(1.00, 0.00, -0.00, -1.00, 616.9, 500.6)">е</text><text xml:space="preserve" font-family="TrebuchetMS" font-size="22.7" fill="#953734" transform="matrix(1.00, 0.00, -0.00, -1.00, 629.4, 500.6)">ш</text><text xml:space="preserve" font-family="TrebuchetMS" font-size="22.7" fill="#953734" transform="matrix(1.00, 0.00, -0.00, -1.00, 646.6, 500.6)">е</text><text xml:space="preserve" font-family="TrebuchetMS" font-size="22.7" fill="#953734" transform="matrix(1.00, 0.00, -0.00, -1.00, 659.0, 500.6)">н</text><text xml:space="preserve" font-family="TrebuchetMS" font-size="22.7" fill="#953734" transform="matrix(1.00, 0.00, -0.00, -1.00, 671.7, 500.6)">и</text><text xml:space="preserve" font-family="TrebuchetMS" font-size="22.7" fill="#953734" transform="matrix(1.00, 0.00, -0.00, -1.00, 684.7, 500.6)">я</text></g></g><text xml:space="preserve" font-family="ArialMT" font-size="23.0" fill="#000000" transform="matrix(1.00, 0.00, -0.00, -1.00, 69.8, 361.8)">•</text><text xml:space="preserve" font-family="TrebuchetMS" font-size="23.0" fill="#000000" transform="matrix(1.00, 0.00, -0.00, -1.00, 97.0, 362.0)">Н</text><text xml:space="preserve" font-family="TrebuchetMS" font-size="23.0" fill="#000000" transform="matrix(1.00, 0.00, -0.00, -1.00, 112.0, 362.0)">а</text><text xml:space="preserve" font-family="TrebuchetMS" font-size="23.0" fill="#000000" transform="matrix(1.00, 0.00, -0.00, -1.00, 123.8, 362.0)"> </text><text xml:space="preserve" font-family="TrebuchetMS" font-size="23.0" fill="#000000" transform="matrix(1.00, 0.00, -0.00, -1.00, 130.8, 362.0)">б</text><text xml:space="preserve" font-family="TrebuchetMS" font-size="23.0" fill="#000000" transform="matrix(1.00, 0.00, -0.00, -1.00, 143.4, 362.0)">а</text><text xml:space="preserve" font-family="TrebuchetMS" font-size="23.0" fill="#000000" transform="matrix(1.00, 0.00, -0.00, -1.00, 155.2, 362.0)">з</text><text xml:space="preserve" font-family="TrebuchetMS" font-size="23.0" fill="#000000" transform="matrix(1.00, 0.00, -0.00, -1.00, 165.7, 362.0)">е</text><text xml:space="preserve" font-family="TrebuchetMS" font-size="23.0" fill="#000000" transform="matrix(1.00, 0.00, -0.00, -1.00, 178.3, 362.0)"> </text><text xml:space="preserve" font-family="TrebuchetMS" font-size="23.0" fill="#000000" transform="matrix(1.00, 0.00, -0.00, -1.00, 185.2, 362.0)">н</text><text xml:space="preserve" font-family="TrebuchetMS" font-size="23.0" fill="#000000" transform="matrix(1.00, 0.00, -0.00, -1.00, 198.1, 362.0)">а</text><text xml:space="preserve" font-family="TrebuchetMS" font-size="23.0" fill="#000000" transform="matrix(1.00, 0.00, -0.00, -1.00, 209.9, 362.0)">к</text><text xml:space="preserve" font-family="TrebuchetMS" font-size="23.0" fill="#000000" transform="matrix(1.00, 0.00, -0.00, -1.00, 221.7, 362.0)">о</text><text xml:space="preserve" font-family="TrebuchetMS" font-size="23.0" fill="#000000" transform="matrix(1.00, 0.00, -0.00, -1.00, 234.1, 362.0)">п</text><text xml:space="preserve" font-family="TrebuchetMS" font-size="23.0" fill="#000000" transform="matrix(1.00, 0.00, -0.00, -1.00, 246.7, 362.0)">л</text><text xml:space="preserve" font-family="TrebuchetMS" font-size="23.0" fill="#000000" transform="matrix(1.00, 0.00, -0.00, -1.00, 259.6, 362.0)">е</text><text xml:space="preserve" font-family="TrebuchetMS" font-size="23.0" fill="#000000" transform="matrix(1.00, 0.00, -0.00, -1.00, 272.2, 362.0)">н</text><text xml:space="preserve" font-family="TrebuchetMS" font-size="23.0" fill="#000000" transform="matrix(1.00, 0.00, -0.00, -1.00, 285.0, 362.0)">н</text><text xml:space="preserve" font-family="TrebuchetMS" font-size="23.0" fill="#000000" transform="matrix(1.00, 0.00, -0.00, -1.00, 297.9, 362.0)">о</text><text xml:space="preserve" font-family="TrebuchetMS" font-size="23.0" fill="#000000" transform="matrix(1.00, 0.00, -0.00, -1.00, 310.3, 362.0)">г</text><text xml:space="preserve" font-family="TrebuchetMS" font-size="23.0" fill="#000000" transform="matrix(1.00, 0.00, -0.00, -1.00, 320.2, 362.0)">о</text><text xml:space="preserve" font-family="TrebuchetMS" font-size="23.0" fill="#000000" transform="matrix(1.00, 0.00, -0.00, -1.00, 332.6, 362.0)"> </text><text xml:space="preserve" font-family="TrebuchetMS" font-size="23.0" fill="#000000" transform="matrix(1.00, 0.00, -0.00, -1.00, 339.5, 362.0)">о</text><text xml:space="preserve" font-family="TrebuchetMS" font-size="23.0" fill="#000000" transform="matrix(1.00, 0.00, -0.00, -1.00, 351.9, 362.0)">п</text><text xml:space="preserve" font-family="TrebuchetMS" font-size="23.0" fill="#000000" transform="matrix(1.00, 0.00, -0.00, -1.00, 364.4, 362.0)">ы</text><text xml:space="preserve" font-family="TrebuchetMS" font-size="23.0" fill="#000000" transform="matrix(1.00, 0.00, -0.00, -1.00, 380.2, 362.0)">т</text><text xml:space="preserve" font-family="TrebuchetMS" font-size="23.0" fill="#000000" transform="matrix(1.00, 0.00, -0.00, -1.00, 390.6, 362.0)">а</text><text xml:space="preserve" font-family="TrebuchetMS" font-size="23.0" fill="#000000" transform="matrix(1.00, 0.00, -0.00, -1.00, 402.4, 362.0)">:</text><text xml:space="preserve" font-family="TrebuchetMS" font-size="23.0" fill="#000000" transform="matrix(1.00, 0.00, -0.00, -1.00, 410.8, 362.0)"> </text><text xml:space="preserve" font-family="ArialMT" font-size="23.0" fill="#000000" transform="matrix(1.00, 0.00, -0.00, -1.00, 141.8, 327.2)">•</text><text xml:space="preserve" font-family="TrebuchetMS" font-size="23.0" fill="#000000" transform="matrix(1.00, 0.00, -0.00, -1.00, 169.0, 327.0)">И</text><text xml:space="preserve" font-family="TrebuchetMS" font-size="23.0" fill="#000000" transform="matrix(1.00, 0.00, -0.00, -1.00, 184.5, 327.0)">с</text><text xml:space="preserve" font-family="TrebuchetMS" font-size="23.0" fill="#000000" transform="matrix(1.00, 0.00, -0.00, -1.00, 195.9, 327.0)">п</text><text xml:space="preserve" font-family="TrebuchetMS" font-size="23.0" fill="#000000" transform="matrix(1.00, 0.00, -0.00, -1.00, 208.4, 327.0)">о</text><text xml:space="preserve" font-family="TrebuchetMS" font-size="23.0" fill="#000000" transform="matrix(1.00, 0.00, -0.00, -1.00, 220.8, 327.0)">л</text><text xml:space="preserve" font-family="TrebuchetMS" font-size="23.0" fill="#000000" transform="matrix(1.00, 0.00, -0.00, -1.00, 233.7, 327.0)">ь</text><text xml:space="preserve" font-family="TrebuchetMS" font-size="23.0" fill="#000000" transform="matrix(1.00, 0.00, -0.00, -1.00, 245.4, 327.0)">з</text><text xml:space="preserve" font-family="TrebuchetMS" font-size="23.0" fill="#000000" transform="matrix(1.00, 0.00, -0.00, -1.00, 255.8, 327.0)">о</text><text xml:space="preserve" font-family="TrebuchetMS" font-size="23.0" fill="#000000" transform="matrix(1.00, 0.00, -0.00, -1.00, 268.2, 327.0)">в</text><text xml:space="preserve" font-family="TrebuchetMS" font-size="23.0" fill="#000000" transform="matrix(1.00, 0.00, -0.00, -1.00, 280.1, 327.0)">а</text><text xml:space="preserve" font-family="TrebuchetMS" font-size="23.0" fill="#000000" transform="matrix(1.00, 0.00, -0.00, -1.00, 291.9, 327.0)">н</text><text xml:space="preserve" font-family="TrebuchetMS" font-size="23.0" fill="#000000" transform="matrix(1.00, 0.00, -0.00, -1.00, 304.7, 327.0)">и</text><text xml:space="preserve" font-family="TrebuchetMS" font-size="23.0" fill="#000000" transform="matrix(1.00, 0.00, -0.00, -1.00, 317.9, 327.0)">е</text><text xml:space="preserve" font-family="TrebuchetMS" font-size="23.0" fill="#000000" transform="matrix(1.00, 0.00, -0.00, -1.00, 330.4, 327.0)"> </text><text xml:space="preserve" font-family="TrebuchetMS" font-size="23.0" fill="#000000" transform="matrix(1.00, 0.00, -0.00, -1.00, 337.4, 327.0)">и</text><text xml:space="preserve" font-family="TrebuchetMS" font-size="23.0" fill="#000000" transform="matrix(1.00, 0.00, -0.00, -1.00, 350.5, 327.0)">з</text><text xml:space="preserve" font-family="TrebuchetMS" font-size="23.0" fill="#000000" transform="matrix(1.00, 0.00, -0.00, -1.00, 361.0, 327.0)">в</text><text xml:space="preserve" font-family="TrebuchetMS" font-size="23.0" fill="#000000" transform="matrix(1.00, 0.00, -0.00, -1.00, 372.8, 327.0)">е</text><text xml:space="preserve" font-family="TrebuchetMS" font-size="23.0" fill="#000000" transform="matrix(1.00, 0.00, -0.00, -1.00, 385.4, 327.0)">с</text><text xml:space="preserve" font-family="TrebuchetMS" font-size="23.0" fill="#000000" transform="matrix(1.00, 0.00, -0.00, -1.00, 396.9, 327.0)">т</text><text xml:space="preserve" font-family="TrebuchetMS" font-size="23.0" fill="#000000" transform="matrix(1.00, 0.00, -0.00, -1.00, 407.3, 327.0)">н</text><text xml:space="preserve" font-family="TrebuchetMS" font-size="23.0" fill="#000000" transform="matrix(1.00, 0.00, -0.00, -1.00, 420.1, 327.0)">ы</text><text xml:space="preserve" font-family="TrebuchetMS" font-size="23.0" fill="#000000" transform="matrix(1.00, 0.00, -0.00, -1.00, 435.9, 327.0)">х</text><text xml:space="preserve" font-family="TrebuchetMS" font-size="23.0" fill="#000000" transform="matrix(1.00, 0.00, -0.00, -1.00, 447.6, 327.0)"> </text><text xml:space="preserve" font-family="TrebuchetMS" font-size="23.0" fill="#000000" transform="matrix(1.00, 0.00, -0.00, -1.00, 454.5, 327.0)">п</text><text xml:space="preserve" font-family="TrebuchetMS" font-size="23.0" fill="#000000" transform="matrix(1.00, 0.00, -0.00, -1.00, 467.1, 327.0)">а</text><text xml:space="preserve" font-family="TrebuchetMS" font-size="23.0" fill="#000000" transform="matrix(1.00, 0.00, -0.00, -1.00, 478.9, 327.0)">т</text><text xml:space="preserve" font-family="TrebuchetMS" font-size="23.0" fill="#000000" transform="matrix(1.00, 0.00, -0.00, -1.00, 489.3, 327.0)">т</text><text xml:space="preserve" font-family="TrebuchetMS" font-size="23.0" fill="#000000" transform="matrix(1.00, 0.00, -0.00, -1.00, 499.7, 327.0)">е</text><text xml:space="preserve" font-family="TrebuchetMS" font-size="23.0" fill="#000000" transform="matrix(1.00, 0.00, -0.00, -1.00, 512.3, 327.0)">р</text><text xml:space="preserve" font-family="TrebuchetMS" font-size="23.0" fill="#000000" transform="matrix(1.00, 0.00, -0.00, -1.00, 525.1, 327.0)">н</text><text xml:space="preserve" font-family="TrebuchetMS" font-size="23.0" fill="#000000" transform="matrix(1.00, 0.00, -0.00, -1.00, 538.0, 327.0)">о</text><text xml:space="preserve" font-family="TrebuchetMS" font-size="23.0" fill="#000000" transform="matrix(1.00, 0.00, -0.00, -1.00, 550.4, 327.0)">в</text><text xml:space="preserve" font-family="TrebuchetMS" font-size="23.0" fill="#000000" transform="matrix(1.00, 0.00, -0.00, -1.00, 562.2, 327.0)"> </text><text xml:space="preserve" font-family="TrebuchetMS" font-size="23.0" fill="#000000" transform="matrix(1.00, 0.00, -0.00, -1.00, 569.2, 327.0)">д</text><text xml:space="preserve" font-family="TrebuchetMS" font-size="23.0" fill="#000000" transform="matrix(1.00, 0.00, -0.00, -1.00, 582.5, 327.0)">л</text><text xml:space="preserve" font-family="TrebuchetMS" font-size="23.0" fill="#000000" transform="matrix(1.00, 0.00, -0.00, -1.00, 595.4, 327.0)">я</text><text xml:space="preserve" font-family="TrebuchetMS" font-size="23.0" fill="#000000" transform="matrix(1.00, 0.00, -0.00, -1.00, 607.5, 327.0)"> </text><text xml:space="preserve" font-family="TrebuchetMS" font-size="23.0" fill="#000000" transform="matrix(1.00, 0.00, -0.00, -1.00, 169.0, 300.0)">в</text><text xml:space="preserve" font-family="TrebuchetMS" font-size="23.0" fill="#000000" transform="matrix(1.00, 0.00, -0.00, -1.00, 180.9, 300.0)">х</text><text xml:space="preserve" font-family="TrebuchetMS" font-size="23.0" fill="#000000" transform="matrix(1.00, 0.00, -0.00, -1.00, 192.6, 300.0)">о</text><text xml:space="preserve" font-family="TrebuchetMS" font-size="23.0" fill="#000000" transform="matrix(1.00, 0.00, -0.00, -1.00, 204.9, 300.0)">д</text><text xml:space="preserve" font-family="TrebuchetMS" font-size="23.0" fill="#000000" transform="matrix(1.00, 0.00, -0.00, -1.00, 218.2, 300.0)">а</text><text xml:space="preserve" font-family="TrebuchetMS" font-size="23.0" fill="#000000" transform="matrix(1.00, 0.00, -0.00, -1.00, 230.0, 300.0)"> </text><text xml:space="preserve" font-family="TrebuchetMS" font-size="23.0" fill="#000000" transform="matrix(1.00, 0.00, -0.00, -1.00, 237.0, 300.0)">и</text><text xml:space="preserve" font-family="TrebuchetMS" font-size="23.0" fill="#000000" transform="matrix(1.00, 0.00, -0.00, -1.00, 250.1, 300.0)"> </text><text xml:space="preserve" font-family="TrebuchetMS" font-size="23.0" fill="#000000" transform="matrix(1.00, 0.00, -0.00, -1.00, 257.1, 300.0)">в</text><text xml:space="preserve" font-family="TrebuchetMS" font-size="23.0" fill="#000000" transform="matrix(1.00, 0.00, -0.00, -1.00, 268.9, 300.0)">ы</text><text xml:space="preserve" font-family="TrebuchetMS" font-size="23.0" fill="#000000" transform="matrix(1.00, 0.00, -0.00, -1.00, 284.7, 300.0)">х</text><text xml:space="preserve" font-family="TrebuchetMS" font-size="23.0" fill="#000000" transform="matrix(1.00, 0.00, -0.00, -1.00, 296.4, 300.0)">о</text><text xml:space="preserve" font-family="TrebuchetMS" font-size="23.0" fill="#000000" transform="matrix(1.00, 0.00, -0.00, -1.00, 308.7, 300.0)">д</text><text xml:space="preserve" font-family="TrebuchetMS" font-size="23.0" fill="#000000" transform="matrix(1.00, 0.00, -0.00, -1.00, 322.0, 300.0)">а</text><text xml:space="preserve" font-family="TrebuchetMS" font-size="23.0" fill="#000000" transform="matrix(1.00, 0.00, -0.00, -1.00, 333.9, 300.0)"> </text><text xml:space="preserve" font-family="TrebuchetMS" font-size="23.0" fill="#000000" transform="matrix(1.00, 0.00, -0.00, -1.00, 340.8, 300.0)">и</text><text xml:space="preserve" font-family="TrebuchetMS" font-size="23.0" fill="#000000" transform="matrix(1.00, 0.00, -0.00, -1.00, 353.9, 300.0)">з</text><text xml:space="preserve" font-family="TrebuchetMS" font-size="23.0" fill="#000000" transform="matrix(1.00, 0.00, -0.00, -1.00, 364.4, 300.0)"> </text><text xml:space="preserve" font-family="TrebuchetMS" font-size="23.0" fill="#000000" transform="matrix(1.00, 0.00, -0.00, -1.00, 371.3, 300.0)">п</text><text xml:space="preserve" font-family="TrebuchetMS" font-size="23.0" fill="#000000" transform="matrix(1.00, 0.00, -0.00, -1.00, 383.9, 300.0)">о</text><text xml:space="preserve" font-family="TrebuchetMS" font-size="23.0" fill="#000000" transform="matrix(1.00, 0.00, -0.00, -1.00, 396.2, 300.0)">з</text><text xml:space="preserve" font-family="TrebuchetMS" font-size="23.0" fill="#000000" transform="matrix(1.00, 0.00, -0.00, -1.00, 406.7, 300.0)">и</text><text xml:space="preserve" font-family="TrebuchetMS" font-size="23.0" fill="#000000" transform="matrix(1.00, 0.00, -0.00, -1.00, 419.8, 300.0)">ц</text><text xml:space="preserve" font-family="TrebuchetMS" font-size="23.0" fill="#000000" transform="matrix(1.00, 0.00, -0.00, -1.00, 432.5, 300.0)">и</text><text xml:space="preserve" font-family="TrebuchetMS" font-size="23.0" fill="#000000" transform="matrix(1.00, 0.00, -0.00, -1.00, 445.7, 300.0)">и</text><text xml:space="preserve" font-family="TrebuchetMS" font-size="23.0" fill="#000000" transform="matrix(1.00, 0.00, -0.00, -1.00, 458.8, 300.0)">.</text><text xml:space="preserve" font-family="TrebuchetMS" font-size="23.0" fill="#000000" transform="matrix(1.00, 0.00, -0.00, -1.00, 467.3, 300.0)"> </text><text xml:space="preserve" font-family="ArialMT" font-size="23.0" fill="#000000" transform="matrix(1.00, 0.00, -0.00, -1.00, 69.8, 265.5)">•</text><text xml:space="preserve" font-family="TrebuchetMS" font-size="23.0" fill="#000000" transform="matrix(1.00, 0.00, -0.00, -1.00, 97.0, 265.0)">Н</text><text xml:space="preserve" font-family="TrebuchetMS" font-size="23.0" fill="#000000" transform="matrix(1.00, 0.00, -0.00, -1.00, 112.0, 265.0)">а</text><text xml:space="preserve" font-family="TrebuchetMS" font-size="23.0" fill="#000000" transform="matrix(1.00, 0.00, -0.00, -1.00, 123.8, 265.0)"> </text><text xml:space="preserve" font-family="TrebuchetMS" font-size="23.0" fill="#000000" transform="matrix(1.00, 0.00, -0.00, -1.00, 130.8, 265.0)">б</text><text xml:space="preserve" font-family="TrebuchetMS" font-size="23.0" fill="#000000" transform="matrix(1.00, 0.00, -0.00, -1.00, 143.4, 265.0)">а</text><text xml:space="preserve" font-family="TrebuchetMS" font-size="23.0" fill="#000000" transform="matrix(1.00, 0.00, -0.00, -1.00, 155.2, 265.0)">з</text><text xml:space="preserve" font-family="TrebuchetMS" font-size="23.0" fill="#000000" transform="matrix(1.00, 0.00, -0.00, -1.00, 165.7, 265.0)">е</text><text xml:space="preserve" font-family="TrebuchetMS" font-size="23.0" fill="#000000" transform="matrix(1.00, 0.00, -0.00, -1.00, 178.3, 265.0)"> </text><text xml:space="preserve" font-family="TrebuchetMS" font-size="23.0" fill="#000000" transform="matrix(1.00, 0.00, -0.00, -1.00, 185.2, 265.0)">и</text><text xml:space="preserve" font-family="TrebuchetMS" font-size="23.0" fill="#000000" transform="matrix(1.00, 0.00, -0.00, -1.00, 198.4, 265.0)">с</text><text xml:space="preserve" font-family="TrebuchetMS" font-size="23.0" fill="#000000" transform="matrix(1.00, 0.00, -0.00, -1.00, 209.8, 265.0)">к</text><text xml:space="preserve" font-family="TrebuchetMS" font-size="23.0" fill="#000000" transform="matrix(1.00, 0.00, -0.00, -1.00, 221.7, 265.0)">у</text><text xml:space="preserve" font-family="TrebuchetMS" font-size="23.0" fill="#000000" transform="matrix(1.00, 0.00, -0.00, -1.00, 233.1, 265.0)">с</text><text xml:space="preserve" font-family="TrebuchetMS" font-size="23.0" fill="#000000" transform="matrix(1.00, 0.00, -0.00, -1.00, 244.5, 265.0)">с</text><text xml:space="preserve" font-family="TrebuchetMS" font-size="23.0" fill="#000000" transform="matrix(1.00, 0.00, -0.00, -1.00, 256.0, 265.0)">т</text><text xml:space="preserve" font-family="TrebuchetMS" font-size="23.0" fill="#000000" transform="matrix(1.00, 0.00, -0.00, -1.00, 266.4, 265.0)">в</text><text xml:space="preserve" font-family="TrebuchetMS" font-size="23.0" fill="#000000" transform="matrix(1.00, 0.00, -0.00, -1.00, 278.3, 265.0)">е</text><text xml:space="preserve" font-family="TrebuchetMS" font-size="23.0" fill="#000000" transform="matrix(1.00, 0.00, -0.00, -1.00, 290.8, 265.0)">н</text><text xml:space="preserve" font-family="TrebuchetMS" font-size="23.0" fill="#000000" transform="matrix(1.00, 0.00, -0.00, -1.00, 303.7, 265.0)">н</text><text xml:space="preserve" font-family="TrebuchetMS" font-size="23.0" fill="#000000" transform="matrix(1.00, 0.00, -0.00, -1.00, 316.6, 265.0)">о</text><text xml:space="preserve" font-family="TrebuchetMS" font-size="23.0" fill="#000000" transform="matrix(1.00, 0.00, -0.00, -1.00, 328.9, 265.0)">г</text><text xml:space="preserve" font-family="TrebuchetMS" font-size="23.0" fill="#000000" transform="matrix(1.00, 0.00, -0.00, -1.00, 338.9, 265.0)">о</text><text xml:space="preserve" font-family="TrebuchetMS" font-size="23.0" fill="#000000" transform="matrix(1.00, 0.00, -0.00, -1.00, 351.2, 265.0)"> </text><text xml:space="preserve" font-family="TrebuchetMS" font-size="23.0" fill="#000000" transform="matrix(1.00, 0.00, -0.00, -1.00, 358.2, 265.0)">и</text><text xml:space="preserve" font-family="TrebuchetMS" font-size="23.0" fill="#000000" transform="matrix(1.00, 0.00, -0.00, -1.00, 371.3, 265.0)">н</text><text xml:space="preserve" font-family="TrebuchetMS" font-size="23.0" fill="#000000" transform="matrix(1.00, 0.00, -0.00, -1.00, 384.2, 265.0)">т</text><text xml:space="preserve" font-family="TrebuchetMS" font-size="23.0" fill="#000000" transform="matrix(1.00, 0.00, -0.00, -1.00, 394.6, 265.0)">е</text><text xml:space="preserve" font-family="TrebuchetMS" font-size="23.0" fill="#000000" transform="matrix(1.00, 0.00, -0.00, -1.00, 407.2, 265.0)">л</text><text xml:space="preserve" font-family="TrebuchetMS" font-size="23.0" fill="#000000" transform="matrix(1.00, 0.00, -0.00, -1.00, 420.1, 265.0)">л</text><text xml:space="preserve" font-family="TrebuchetMS" font-size="23.0" fill="#000000" transform="matrix(1.00, 0.00, -0.00, -1.00, 433.1, 265.0)">е</text><text xml:space="preserve" font-family="TrebuchetMS" font-size="23.0" fill="#000000" transform="matrix(1.00, 0.00, -0.00, -1.00, 445.7, 265.0)">к</text><text xml:space="preserve" font-family="TrebuchetMS" font-size="23.0" fill="#000000" transform="matrix(1.00, 0.00, -0.00, -1.00, 457.5, 265.0)">т</text><text xml:space="preserve" font-family="TrebuchetMS" font-size="23.0" fill="#000000" transform="matrix(1.00, 0.00, -0.00, -1.00, 468.0, 265.0)">а</text><text xml:space="preserve" font-family="TrebuchetMS" font-size="23.0" fill="#000000" transform="matrix(1.00, 0.00, -0.00, -1.00, 479.8, 265.0)">:</text><text xml:space="preserve" font-family="TrebuchetMS" font-size="23.0" fill="#000000" transform="matrix(1.00, 0.00, -0.00, -1.00, 488.2, 265.0)"> </text><text xml:space="preserve" font-family="TrebuchetMS" font-size="23.0" fill="#000000" transform="matrix(1.00, 0.00, -0.00, -1.00, 495.1, 265.0)"> </text><text xml:space="preserve" font-family="ArialMT" font-size="23.0" fill="#000000" transform="matrix(1.00, 0.00, -0.00, -1.00, 141.8, 230.8)">•</text><text xml:space="preserve" font-family="TrebuchetMS" font-size="23.0" fill="#000000" transform="matrix(1.00, 0.00, -0.00, -1.00, 169.0, 231.0)">А</text><text xml:space="preserve" font-family="TrebuchetMS" font-size="23.0" fill="#000000" transform="matrix(1.00, 0.00, -0.00, -1.00, 182.7, 231.0)">г</text><text xml:space="preserve" font-family="TrebuchetMS" font-size="23.0" fill="#000000" transform="matrix(1.00, 0.00, -0.00, -1.00, 192.6, 231.0)">е</text><text xml:space="preserve" font-family="TrebuchetMS" font-size="23.0" fill="#000000" transform="matrix(1.00, 0.00, -0.00, -1.00, 205.2, 231.0)">н</text><text xml:space="preserve" font-family="TrebuchetMS" font-size="23.0" fill="#000000" transform="matrix(1.00, 0.00, -0.00, -1.00, 218.1, 231.0)">т</text><text xml:space="preserve" font-family="TrebuchetMS" font-size="23.0" fill="#000000" transform="matrix(1.00, 0.00, -0.00, -1.00, 228.5, 231.0)">н</text><text xml:space="preserve" font-family="TrebuchetMS" font-size="23.0" fill="#000000" transform="matrix(1.00, 0.00, -0.00, -1.00, 241.4, 231.0)">о</text><text xml:space="preserve" font-family="TrebuchetMS" font-size="23.0" fill="#000000" transform="matrix(1.00, 0.00, -0.00, -1.00, 253.7, 231.0)">-</text><text xml:space="preserve" font-family="TrebuchetMS" font-size="23.0" fill="#000000" transform="matrix(1.00, 0.00, -0.00, -1.00, 262.2, 231.0)">о</text><text xml:space="preserve" font-family="TrebuchetMS" font-size="23.0" fill="#000000" transform="matrix(1.00, 0.00, -0.00, -1.00, 274.5, 231.0)">р</text><text xml:space="preserve" font-family="TrebuchetMS" font-size="23.0" fill="#000000" transform="matrix(1.00, 0.00, -0.00, -1.00, 287.4, 231.0)">и</text><text xml:space="preserve" font-family="TrebuchetMS" font-size="23.0" fill="#000000" transform="matrix(1.00, 0.00, -0.00, -1.00, 300.5, 231.0)">е</text><text xml:space="preserve" font-family="TrebuchetMS" font-size="23.0" fill="#000000" transform="matrix(1.00, 0.00, -0.00, -1.00, 313.1, 231.0)">н</text><text xml:space="preserve" font-family="TrebuchetMS" font-size="23.0" fill="#000000" transform="matrix(1.00, 0.00, -0.00, -1.00, 326.0, 231.0)">т</text><text xml:space="preserve" font-family="TrebuchetMS" font-size="23.0" fill="#000000" transform="matrix(1.00, 0.00, -0.00, -1.00, 336.4, 231.0)">и</text><text xml:space="preserve" font-family="TrebuchetMS" font-size="23.0" fill="#000000" transform="matrix(1.00, 0.00, -0.00, -1.00, 349.5, 231.0)">р</text><text xml:space="preserve" font-family="TrebuchetMS" font-size="23.0" fill="#000000" transform="matrix(1.00, 0.00, -0.00, -1.00, 362.4, 231.0)">о</text><text xml:space="preserve" font-family="TrebuchetMS" font-size="23.0" fill="#000000" transform="matrix(1.00, 0.00, -0.00, -1.00, 374.7, 231.0)">в</text><text xml:space="preserve" font-family="TrebuchetMS" font-size="23.0" fill="#000000" transform="matrix(1.00, 0.00, -0.00, -1.00, 386.6, 231.0)">а</text><text xml:space="preserve" font-family="TrebuchetMS" font-size="23.0" fill="#000000" transform="matrix(1.00, 0.00, -0.00, -1.00, 398.4, 231.0)">н</text><text xml:space="preserve" font-family="TrebuchetMS" font-size="23.0" fill="#000000" transform="matrix(1.00, 0.00, -0.00, -1.00, 411.3, 231.0)">н</text><text xml:space="preserve" font-family="TrebuchetMS" font-size="23.0" fill="#000000" transform="matrix(1.00, 0.00, -0.00, -1.00, 424.1, 231.0)">ы</text><text xml:space="preserve" font-family="TrebuchetMS" font-size="23.0" fill="#000000" transform="matrix(1.00, 0.00, -0.00, -1.00, 439.9, 231.0)">й</text><text xml:space="preserve" font-family="TrebuchetMS" font-size="23.0" fill="#000000" transform="matrix(1.00, 0.00, -0.00, -1.00, 453.0, 231.0)"> </text><text xml:space="preserve" font-family="TrebuchetMS" font-size="23.0" fill="#000000" transform="matrix(1.00, 0.00, -0.00, -1.00, 460.0, 231.0)">п</text><text xml:space="preserve" font-family="TrebuchetMS" font-size="23.0" fill="#000000" transform="matrix(1.00, 0.00, -0.00, -1.00, 472.5, 231.0)">о</text><text xml:space="preserve" font-family="TrebuchetMS" font-size="23.0" fill="#000000" transform="matrix(1.00, 0.00, -0.00, -1.00, 484.9, 231.0)">д</text><text xml:space="preserve" font-family="TrebuchetMS" font-size="23.0" fill="#000000" transform="matrix(1.00, 0.00, -0.00, -1.00, 498.2, 231.0)">х</text><text xml:space="preserve" font-family="TrebuchetMS" font-size="23.0" fill="#000000" transform="matrix(1.00, 0.00, -0.00, -1.00, 509.9, 231.0)">о</text><text xml:space="preserve" font-family="TrebuchetMS" font-size="23.0" fill="#000000" transform="matrix(1.00, 0.00, -0.00, -1.00, 522.3, 231.0)">д</text><text xml:space="preserve" font-family="TrebuchetMS" font-size="23.0" fill="#000000" transform="matrix(1.00, 0.00, -0.00, -1.00, 535.6, 231.0)"> </text><text xml:space="preserve" font-family="ArialMT" font-size="23.0" fill="#000000" transform="matrix(1.00, 0.00, -0.00, -1.00, 141.8, 196.1)">•</text><text xml:space="preserve" font-family="TrebuchetMS" font-size="23.0" fill="#000000" transform="matrix(1.00, 0.00, -0.00, -1.00, 169.0, 196.0)">Н</text><text xml:space="preserve" font-family="TrebuchetMS" font-size="23.0" fill="#000000" transform="matrix(1.00, 0.00, -0.00, -1.00, 184.0, 196.0)">е</text><text xml:space="preserve" font-family="TrebuchetMS" font-size="23.0" fill="#000000" transform="matrix(1.00, 0.00, -0.00, -1.00, 196.6, 196.0)">й</text><text xml:space="preserve" font-family="TrebuchetMS" font-size="23.0" fill="#000000" transform="matrix(1.00, 0.00, -0.00, -1.00, 209.8, 196.0)">р</text><text xml:space="preserve" font-family="TrebuchetMS" font-size="23.0" fill="#000000" transform="matrix(1.00, 0.00, -0.00, -1.00, 222.6, 196.0)">о</text><text xml:space="preserve" font-family="TrebuchetMS" font-size="23.0" fill="#000000" transform="matrix(1.00, 0.00, -0.00, -1.00, 234.9, 196.0)">н</text><text xml:space="preserve" font-family="TrebuchetMS" font-size="23.0" fill="#000000" transform="matrix(1.00, 0.00, -0.00, -1.00, 247.8, 196.0)">н</text><text xml:space="preserve" font-family="TrebuchetMS" font-size="23.0" fill="#000000" transform="matrix(1.00, 0.00, -0.00, -1.00, 260.6, 196.0)">ы</text><text xml:space="preserve" font-family="TrebuchetMS" font-size="23.0" fill="#000000" transform="matrix(1.00, 0.00, -0.00, -1.00, 276.4, 196.0)">е</text><text xml:space="preserve" font-family="TrebuchetMS" font-size="23.0" fill="#000000" transform="matrix(1.00, 0.00, -0.00, -1.00, 288.9, 196.0)"> </text><text xml:space="preserve" font-family="TrebuchetMS" font-size="23.0" fill="#000000" transform="matrix(1.00, 0.00, -0.00, -1.00, 295.9, 196.0)">с</text><text xml:space="preserve" font-family="TrebuchetMS" font-size="23.0" fill="#000000" transform="matrix(1.00, 0.00, -0.00, -1.00, 307.3, 196.0)">е</text><text xml:space="preserve" font-family="TrebuchetMS" font-size="23.0" fill="#000000" transform="matrix(1.00, 0.00, -0.00, -1.00, 319.9, 196.0)">т</text><text xml:space="preserve" font-family="TrebuchetMS" font-size="23.0" fill="#000000" transform="matrix(1.00, 0.00, -0.00, -1.00, 330.3, 196.0)">и</text><text xml:space="preserve" font-family="TrebuchetMS" font-size="23.0" fill="#000000" transform="matrix(1.00, 0.00, -0.00, -1.00, 343.5, 196.0)"> </text><text xml:space="preserve" font-family="ArialMT" font-size="23.0" fill="#000000" transform="matrix(1.00, 0.00, -0.00, -1.00, 141.8, 161.4)">•</text><text xml:space="preserve" font-family="TrebuchetMS" font-size="23.0" fill="#000000" transform="matrix(1.00, 0.00, -0.00, -1.00, 169.0, 161.0)">Г</text><text xml:space="preserve" font-family="TrebuchetMS" font-size="23.0" fill="#000000" transform="matrix(1.00, 0.00, -0.00, -1.00, 181.0, 161.0)">е</text><text xml:space="preserve" font-family="TrebuchetMS" font-size="23.0" fill="#000000" transform="matrix(1.00, 0.00, -0.00, -1.00, 193.5, 161.0)">н</text><text xml:space="preserve" font-family="TrebuchetMS" font-size="23.0" fill="#000000" transform="matrix(1.00, 0.00, -0.00, -1.00, 206.4, 161.0)">е</text><text xml:space="preserve" font-family="TrebuchetMS" font-size="23.0" fill="#000000" transform="matrix(1.00, 0.00, -0.00, -1.00, 219.0, 161.0)">т</text><text xml:space="preserve" font-family="TrebuchetMS" font-size="23.0" fill="#000000" transform="matrix(1.00, 0.00, -0.00, -1.00, 229.4, 161.0)">и</text><text xml:space="preserve" font-family="TrebuchetMS" font-size="23.0" fill="#000000" transform="matrix(1.00, 0.00, -0.00, -1.00, 242.5, 161.0)">ч</text><text xml:space="preserve" font-family="TrebuchetMS" font-size="23.0" fill="#000000" transform="matrix(1.00, 0.00, -0.00, -1.00, 254.7, 161.0)">е</text><text xml:space="preserve" font-family="TrebuchetMS" font-size="23.0" fill="#000000" transform="matrix(1.00, 0.00, -0.00, -1.00, 267.3, 161.0)">с</text><text xml:space="preserve" font-family="TrebuchetMS" font-size="23.0" fill="#000000" transform="matrix(1.00, 0.00, -0.00, -1.00, 278.8, 161.0)">к</text><text xml:space="preserve" font-family="TrebuchetMS" font-size="23.0" fill="#000000" transform="matrix(1.00, 0.00, -0.00, -1.00, 290.6, 161.0)">и</text><text xml:space="preserve" font-family="TrebuchetMS" font-size="23.0" fill="#000000" transform="matrix(1.00, 0.00, -0.00, -1.00, 303.8, 161.0)">е</text><text xml:space="preserve" font-family="TrebuchetMS" font-size="23.0" fill="#000000" transform="matrix(1.00, 0.00, -0.00, -1.00, 316.4, 161.0)"> </text><text xml:space="preserve" font-family="TrebuchetMS" font-size="23.0" fill="#000000" transform="matrix(1.00, 0.00, -0.00, -1.00, 323.3, 161.0)">а</text><text xml:space="preserve" font-family="TrebuchetMS" font-size="23.0" fill="#000000" transform="matrix(1.00, 0.00, -0.00, -1.00, 335.1, 161.0)">л</text><text xml:space="preserve" font-family="TrebuchetMS" font-size="23.0" fill="#000000" transform="matrix(1.00, 0.00, -0.00, -1.00, 348.0, 161.0)">г</text><text xml:space="preserve" font-family="TrebuchetMS" font-size="23.0" fill="#000000" transform="matrix(1.00, 0.00, -0.00, -1.00, 358.0, 161.0)">о</text><text xml:space="preserve" font-family="TrebuchetMS" font-size="23.0" fill="#000000" transform="matrix(1.00, 0.00, -0.00, -1.00, 370.4, 161.0)">р</text><text xml:space="preserve" font-family="TrebuchetMS" font-size="23.0" fill="#000000" transform="matrix(1.00, 0.00, -0.00, -1.00, 383.2, 161.0)">и</text><text xml:space="preserve" font-family="TrebuchetMS" font-size="23.0" fill="#000000" transform="matrix(1.00, 0.00, -0.00, -1.00, 396.3, 161.0)">т</text><text xml:space="preserve" font-family="TrebuchetMS" font-size="23.0" fill="#000000" transform="matrix(1.00, 0.00, -0.00, -1.00, 406.8, 161.0)">м</text><text xml:space="preserve" font-family="TrebuchetMS" font-size="23.0" fill="#000000" transform="matrix(1.00, 0.00, -0.00, -1.00, 422.4, 161.0)">ы</text><text xml:space="preserve" font-family="TrebuchetMS" font-size="23.0" fill="#000000" transform="matrix(1.00, 0.00, -0.00, -1.00, 438.2, 161.0)"> </text><text xml:space="preserve" font-family="TrebuchetMS" font-size="23.0" fill="#000000" transform="matrix(1.00, 0.00, -0.00, -1.00, 445.1, 161.0)">и</text><text xml:space="preserve" font-family="TrebuchetMS" font-size="23.0" fill="#000000" transform="matrix(1.00, 0.00, -0.00, -1.00, 458.3, 161.0)"> </text><text xml:space="preserve" font-family="TrebuchetMS" font-size="23.0" fill="#000000" transform="matrix(1.00, 0.00, -0.00, -1.00, 465.2, 161.0)">т</text><text xml:space="preserve" font-family="TrebuchetMS" font-size="23.0" fill="#000000" transform="matrix(1.00, 0.00, -0.00, -1.00, 475.6, 161.0)">.</text><text xml:space="preserve" font-family="TrebuchetMS" font-size="23.0" fill="#000000" transform="matrix(1.00, 0.00, -0.00, -1.00, 484.1, 161.0)">д</text><text xml:space="preserve" font-family="TrebuchetMS" font-size="23.0" fill="#000000" transform="matrix(1.00, 0.00, -0.00, -1.00, 497.4, 161.0)">.</text><text xml:space="preserve" font-family="TrebuchetMS" font-size="12.0" fill="#878787" transform="matrix(1.00, 0.00, -0.00, -1.00, 40.0, 14.0)">3</text></g></svg>