<?xml version="1.0" encoding="UTF-8" standalone="no"?><svg xmlns="http://www.w3.org/2000/svg" xmlns:xlink="http://www.w3.org/1999/xlink" clip-rule="evenodd" stroke-miterlimit="4.00" viewBox="0 0 720 540"><desc>SVG generated by Keynote</desc><defs></defs><g transform="matrix(1.00, 0.00, -0.00, -1.00, 0.0, 540.0)"><g><clipPath id="clip-3"><path d="M 0.0 540.0 L 720.0 540.0 L 720.0 0.0 L 0.0 0.0 Z M 0.0 540.0 "></path></clipPath><g clip-path="url(#clip-3)"><image xlink:href="../../9F71FDD0-7D0B-48C6-983A-900A1F72ECDE/assets/36E35D0E8DCB2323862ECB049F917A5C.jpeg" width="720.00" height="539.00" transform="matrix(1.00, 0.00, -0.00, -1.00, 0.0, 540.0)"></image></g></g><g><clipPath id="clip-4"><path d="M 186.9 495.7 L 703.2 495.7 L 703.2 521.5 L 186.9 521.5 Z M 186.9 495.7 "></path></clipPath><g clip-path="url(#clip-4)"><text xml:space="preserve" font-family="TrebuchetMS" font-size="22.7" fill="#953734" transform="matrix(1.00, 0.00, -0.00, -1.00, 287.0, 500.6)">А</text><text xml:space="preserve" font-family="TrebuchetMS" font-size="22.7" fill="#953734" transform="matrix(1.00, 0.00, -0.00, -1.00, 300.5, 500.6)">в</text><text xml:space="preserve" font-family="TrebuchetMS" font-size="22.7" fill="#953734" transform="matrix(1.00, 0.00, -0.00, -1.00, 312.2, 500.6)">т</text><text xml:space="preserve" font-family="TrebuchetMS" font-size="22.7" fill="#953734" transform="matrix(1.00, 0.00, -0.00, -1.00, 322.5, 500.6)">о</text><text xml:space="preserve" font-family="TrebuchetMS" font-size="22.7" fill="#953734" transform="matrix(1.00, 0.00, -0.00, -1.00, 334.7, 500.6)">м</text><text xml:space="preserve" font-family="TrebuchetMS" font-size="22.7" fill="#953734" transform="matrix(1.00, 0.00, -0.00, -1.00, 350.1, 500.6)">а</text><text xml:space="preserve" font-family="TrebuchetMS" font-size="22.7" fill="#953734" transform="matrix(1.00, 0.00, -0.00, -1.00, 361.8, 500.6)">т</text><text xml:space="preserve" font-family="TrebuchetMS" font-size="22.7" fill="#953734" transform="matrix(1.00, 0.00, -0.00, -1.00, 372.1, 500.6)">и</text><text xml:space="preserve" font-family="TrebuchetMS" font-size="22.7" fill="#953734" transform="matrix(1.00, 0.00, -0.00, -1.00, 385.0, 500.6)">з</text><text xml:space="preserve" font-family="TrebuchetMS" font-size="22.7" fill="#953734" transform="matrix(1.00, 0.00, -0.00, -1.00, 395.3, 500.6)">и</text><text xml:space="preserve" font-family="TrebuchetMS" font-size="22.7" fill="#953734" transform="matrix(1.00, 0.00, -0.00, -1.00, 408.3, 500.6)">р</text><text xml:space="preserve" font-family="TrebuchetMS" font-size="22.7" fill="#953734" transform="matrix(1.00, 0.00, -0.00, -1.00, 420.9, 500.6)">о</text><text xml:space="preserve" font-family="TrebuchetMS" font-size="22.7" fill="#953734" transform="matrix(1.00, 0.00, -0.00, -1.00, 433.1, 500.6)">в</text><text xml:space="preserve" font-family="TrebuchetMS" font-size="22.7" fill="#953734" transform="matrix(1.00, 0.00, -0.00, -1.00, 444.8, 500.6)">а</text><text xml:space="preserve" font-family="TrebuchetMS" font-size="22.7" fill="#953734" transform="matrix(1.00, 0.00, -0.00, -1.00, 456.5, 500.6)">н</text><text xml:space="preserve" font-family="TrebuchetMS" font-size="22.7" fill="#953734" transform="matrix(1.00, 0.00, -0.00, -1.00, 469.2, 500.6)">н</text><text xml:space="preserve" font-family="TrebuchetMS" font-size="22.7" fill="#953734" transform="matrix(1.00, 0.00, -0.00, -1.00, 481.9, 500.6)">а</text><text xml:space="preserve" font-family="TrebuchetMS" font-size="22.7" fill="#953734" transform="matrix(1.00, 0.00, -0.00, -1.00, 493.5, 500.6)">я</text><text xml:space="preserve" font-family="TrebuchetMS" font-size="22.7" fill="#953734" transform="matrix(1.00, 0.00, -0.00, -1.00, 505.3, 500.6)"> </text><text xml:space="preserve" font-family="TrebuchetMS" font-size="22.7" fill="#953734" transform="matrix(1.00, 0.00, -0.00, -1.00, 512.1, 500.6)">т</text><text xml:space="preserve" font-family="TrebuchetMS" font-size="22.7" fill="#953734" transform="matrix(1.00, 0.00, -0.00, -1.00, 522.4, 500.6)">о</text><text xml:space="preserve" font-family="TrebuchetMS" font-size="22.7" fill="#953734" transform="matrix(1.00, 0.00, -0.00, -1.00, 534.6, 500.6)">р</text><text xml:space="preserve" font-family="TrebuchetMS" font-size="22.7" fill="#953734" transform="matrix(1.00, 0.00, -0.00, -1.00, 547.3, 500.6)">г</text><text xml:space="preserve" font-family="TrebuchetMS" font-size="22.7" fill="#953734" transform="matrix(1.00, 0.00, -0.00, -1.00, 557.1, 500.6)">о</text><text xml:space="preserve" font-family="TrebuchetMS" font-size="22.7" fill="#953734" transform="matrix(1.00, 0.00, -0.00, -1.00, 569.3, 500.6)">в</text><text xml:space="preserve" font-family="TrebuchetMS" font-size="22.7" fill="#953734" transform="matrix(1.00, 0.00, -0.00, -1.00, 581.0, 500.6)">а</text><text xml:space="preserve" font-family="TrebuchetMS" font-size="22.7" fill="#953734" transform="matrix(1.00, 0.00, -0.00, -1.00, 592.6, 500.6)">я</text><text xml:space="preserve" font-family="TrebuchetMS" font-size="22.7" fill="#953734" transform="matrix(1.00, 0.00, -0.00, -1.00, 604.5, 500.6)"> </text><text xml:space="preserve" font-family="TrebuchetMS" font-size="22.7" fill="#953734" transform="matrix(1.00, 0.00, -0.00, -1.00, 611.4, 500.6)">с</text><text xml:space="preserve" font-family="TrebuchetMS" font-size="22.7" fill="#953734" transform="matrix(1.00, 0.00, -0.00, -1.00, 622.6, 500.6)">и</text><text xml:space="preserve" font-family="TrebuchetMS" font-size="22.7" fill="#953734" transform="matrix(1.00, 0.00, -0.00, -1.00, 635.6, 500.6)">с</text><text xml:space="preserve" font-family="TrebuchetMS" font-size="22.7" fill="#953734" transform="matrix(1.00, 0.00, -0.00, -1.00, 646.9, 500.6)">т</text><text xml:space="preserve" font-family="TrebuchetMS" font-size="22.7" fill="#953734" transform="matrix(1.00, 0.00, -0.00, -1.00, 657.2, 500.6)">е</text><text xml:space="preserve" font-family="TrebuchetMS" font-size="22.7" fill="#953734" transform="matrix(1.00, 0.00, -0.00, -1.00, 669.6, 500.6)">м</text><text xml:space="preserve" font-family="TrebuchetMS" font-size="22.7" fill="#953734" transform="matrix(1.00, 0.00, -0.00, -1.00, 685.0, 500.6)">а</text></g></g><text xml:space="preserve" font-family="ArialMT" font-size="24.0" fill="#000000" transform="matrix(1.00, 0.00, -0.00, -1.00, 194.3, 380.9)">•</text><text xml:space="preserve" font-family="TimesNewRomanPSMT" font-size="24.0" fill="#000000" transform="matrix(1.00, 0.00, -0.00, -1.00, 221.0, 382.0)">М</text><text xml:space="preserve" font-family="TimesNewRomanPSMT" font-size="24.0" fill="#000000" transform="matrix(1.00, 0.00, -0.00, -1.00, 242.3, 382.0)">н</text><text xml:space="preserve" font-family="TimesNewRomanPSMT" font-size="24.0" fill="#000000" transform="matrix(1.00, 0.00, -0.00, -1.00, 255.2, 382.0)">о</text><text xml:space="preserve" font-family="TimesNewRomanPSMT" font-size="24.0" fill="#000000" transform="matrix(1.00, 0.00, -0.00, -1.00, 266.6, 382.0)">ж</text><text xml:space="preserve" font-family="TimesNewRomanPSMT" font-size="24.0" fill="#000000" transform="matrix(1.00, 0.00, -0.00, -1.00, 282.9, 382.0)">е</text><text xml:space="preserve" font-family="TimesNewRomanPSMT" font-size="24.0" fill="#000000" transform="matrix(1.00, 0.00, -0.00, -1.00, 294.1, 382.0)">с</text><text xml:space="preserve" font-family="TimesNewRomanPSMT" font-size="24.0" fill="#000000" transform="matrix(1.00, 0.00, -0.00, -1.00, 304.8, 382.0)">т</text><text xml:space="preserve" font-family="TimesNewRomanPSMT" font-size="24.0" fill="#000000" transform="matrix(1.00, 0.00, -0.00, -1.00, 315.2, 382.0)">в</text><text xml:space="preserve" font-family="TimesNewRomanPSMT" font-size="24.0" fill="#000000" transform="matrix(1.00, 0.00, -0.00, -1.00, 326.4, 382.0)">о</text><text xml:space="preserve" font-family="TimesNewRomanPSMT" font-size="24.0" fill="#000000" transform="matrix(1.00, 0.00, -0.00, -1.00, 338.4, 382.0)"> </text><text xml:space="preserve" font-family="TimesNewRomanPSMT" font-size="24.0" fill="#000000" transform="matrix(1.00, 0.00, -0.00, -1.00, 344.4, 382.0)">п</text><text xml:space="preserve" font-family="TimesNewRomanPSMT" font-size="24.0" fill="#000000" transform="matrix(1.00, 0.00, -0.00, -1.00, 357.3, 382.0)">р</text><text xml:space="preserve" font-family="TimesNewRomanPSMT" font-size="24.0" fill="#000000" transform="matrix(1.00, 0.00, -0.00, -1.00, 369.3, 382.0)">а</text><text xml:space="preserve" font-family="TimesNewRomanPSMT" font-size="24.0" fill="#000000" transform="matrix(1.00, 0.00, -0.00, -1.00, 379.9, 382.0)">в</text><text xml:space="preserve" font-family="TimesNewRomanPSMT" font-size="24.0" fill="#000000" transform="matrix(1.00, 0.00, -0.00, -1.00, 391.2, 382.0)">и</text><text xml:space="preserve" font-family="TimesNewRomanPSMT" font-size="24.0" fill="#000000" transform="matrix(1.00, 0.00, -0.00, -1.00, 404.1, 382.0)">л</text><text xml:space="preserve" font-family="TimesNewRomanPSMT" font-size="24.0" fill="#000000" transform="matrix(1.00, 0.00, -0.00, -1.00, 416.1, 382.0)"> </text><text xml:space="preserve" font-family="TimesNewRomanPSMT" font-size="24.0" fill="#000000" transform="matrix(1.00, 0.00, -0.00, -1.00, 422.1, 382.0)">д</text><text xml:space="preserve" font-family="TimesNewRomanPSMT" font-size="24.0" fill="#000000" transform="matrix(1.00, 0.00, -0.00, -1.00, 434.3, 382.0)">л</text><text xml:space="preserve" font-family="TimesNewRomanPSMT" font-size="24.0" fill="#000000" transform="matrix(1.00, 0.00, -0.00, -1.00, 446.3, 382.0)">я</text><text xml:space="preserve" font-family="TimesNewRomanPSMT" font-size="24.0" fill="#000000" transform="matrix(1.00, 0.00, -0.00, -1.00, 457.3, 382.0)"> </text><text xml:space="preserve" font-family="TimesNewRomanPSMT" font-size="24.0" fill="#000000" transform="matrix(1.00, 0.00, -0.00, -1.00, 463.3, 382.0)">о</text><text xml:space="preserve" font-family="TimesNewRomanPSMT" font-size="24.0" fill="#000000" transform="matrix(1.00, 0.00, -0.00, -1.00, 475.0, 382.0)">т</text><text xml:space="preserve" font-family="TimesNewRomanPSMT" font-size="24.0" fill="#000000" transform="matrix(1.00, 0.00, -0.00, -1.00, 485.5, 382.0)">к</text><text xml:space="preserve" font-family="TimesNewRomanPSMT" font-size="24.0" fill="#000000" transform="matrix(1.00, 0.00, -0.00, -1.00, 497.1, 382.0)">р</text><text xml:space="preserve" font-family="TimesNewRomanPSMT" font-size="24.0" fill="#000000" transform="matrix(1.00, 0.00, -0.00, -1.00, 509.1, 382.0)">ы</text><text xml:space="preserve" font-family="TimesNewRomanPSMT" font-size="24.0" fill="#000000" transform="matrix(1.00, 0.00, -0.00, -1.00, 525.2, 382.0)">т</text><text xml:space="preserve" font-family="TimesNewRomanPSMT" font-size="24.0" fill="#000000" transform="matrix(1.00, 0.00, -0.00, -1.00, 535.7, 382.0)">и</text><text xml:space="preserve" font-family="TimesNewRomanPSMT" font-size="24.0" fill="#000000" transform="matrix(1.00, 0.00, -0.00, -1.00, 548.6, 382.0)">я</text><text xml:space="preserve" font-family="TimesNewRomanPSMT" font-size="24.0" fill="#000000" transform="matrix(1.00, 0.00, -0.00, -1.00, 559.6, 382.0)">,</text><text xml:space="preserve" font-family="TimesNewRomanPSMT" font-size="24.0" fill="#000000" transform="matrix(1.00, 0.00, -0.00, -1.00, 565.6, 382.0)"> </text><text xml:space="preserve" font-family="TimesNewRomanPSMT" font-size="24.0" fill="#000000" transform="matrix(1.00, 0.00, -0.00, -1.00, 221.0, 355.0)">с</text><text xml:space="preserve" font-family="TimesNewRomanPSMT" font-size="24.0" fill="#000000" transform="matrix(1.00, 0.00, -0.00, -1.00, 231.6, 355.0)">о</text><text xml:space="preserve" font-family="TimesNewRomanPSMT" font-size="24.0" fill="#000000" transform="matrix(1.00, 0.00, -0.00, -1.00, 243.6, 355.0)">п</text><text xml:space="preserve" font-family="TimesNewRomanPSMT" font-size="24.0" fill="#000000" transform="matrix(1.00, 0.00, -0.00, -1.00, 256.5, 355.0)">р</text><text xml:space="preserve" font-family="TimesNewRomanPSMT" font-size="24.0" fill="#000000" transform="matrix(1.00, 0.00, -0.00, -1.00, 268.5, 355.0)">о</text><text xml:space="preserve" font-family="TimesNewRomanPSMT" font-size="24.0" fill="#000000" transform="matrix(1.00, 0.00, -0.00, -1.00, 280.5, 355.0)">в</text><text xml:space="preserve" font-family="TimesNewRomanPSMT" font-size="24.0" fill="#000000" transform="matrix(1.00, 0.00, -0.00, -1.00, 291.7, 355.0)">о</text><text xml:space="preserve" font-family="TimesNewRomanPSMT" font-size="24.0" fill="#000000" transform="matrix(1.00, 0.00, -0.00, -1.00, 303.1, 355.0)">ж</text><text xml:space="preserve" font-family="TimesNewRomanPSMT" font-size="24.0" fill="#000000" transform="matrix(1.00, 0.00, -0.00, -1.00, 319.6, 355.0)">д</text><text xml:space="preserve" font-family="TimesNewRomanPSMT" font-size="24.0" fill="#000000" transform="matrix(1.00, 0.00, -0.00, -1.00, 331.9, 355.0)">е</text><text xml:space="preserve" font-family="TimesNewRomanPSMT" font-size="24.0" fill="#000000" transform="matrix(1.00, 0.00, -0.00, -1.00, 342.5, 355.0)">н</text><text xml:space="preserve" font-family="TimesNewRomanPSMT" font-size="24.0" fill="#000000" transform="matrix(1.00, 0.00, -0.00, -1.00, 355.4, 355.0)">и</text><text xml:space="preserve" font-family="TimesNewRomanPSMT" font-size="24.0" fill="#000000" transform="matrix(1.00, 0.00, -0.00, -1.00, 368.2, 355.0)">я</text><text xml:space="preserve" font-family="TimesNewRomanPSMT" font-size="24.0" fill="#000000" transform="matrix(1.00, 0.00, -0.00, -1.00, 379.2, 355.0)"> </text><text xml:space="preserve" font-family="TimesNewRomanPSMT" font-size="24.0" fill="#000000" transform="matrix(1.00, 0.00, -0.00, -1.00, 385.2, 355.0)">и</text><text xml:space="preserve" font-family="TimesNewRomanPSMT" font-size="24.0" fill="#000000" transform="matrix(1.00, 0.00, -0.00, -1.00, 398.1, 355.0)"> </text><text xml:space="preserve" font-family="TimesNewRomanPSMT" font-size="24.0" fill="#000000" transform="matrix(1.00, 0.00, -0.00, -1.00, 404.1, 355.0)">з</text><text xml:space="preserve" font-family="TimesNewRomanPSMT" font-size="24.0" fill="#000000" transform="matrix(1.00, 0.00, -0.00, -1.00, 413.6, 355.0)">а</text><text xml:space="preserve" font-family="TimesNewRomanPSMT" font-size="24.0" fill="#000000" transform="matrix(1.00, 0.00, -0.00, -1.00, 424.2, 355.0)">к</text><text xml:space="preserve" font-family="TimesNewRomanPSMT" font-size="24.0" fill="#000000" transform="matrix(1.00, 0.00, -0.00, -1.00, 435.9, 355.0)">р</text><text xml:space="preserve" font-family="TimesNewRomanPSMT" font-size="24.0" fill="#000000" transform="matrix(1.00, 0.00, -0.00, -1.00, 447.9, 355.0)">ы</text><text xml:space="preserve" font-family="TimesNewRomanPSMT" font-size="24.0" fill="#000000" transform="matrix(1.00, 0.00, -0.00, -1.00, 464.0, 355.0)">т</text><text xml:space="preserve" font-family="TimesNewRomanPSMT" font-size="24.0" fill="#000000" transform="matrix(1.00, 0.00, -0.00, -1.00, 474.5, 355.0)">и</text><text xml:space="preserve" font-family="TimesNewRomanPSMT" font-size="24.0" fill="#000000" transform="matrix(1.00, 0.00, -0.00, -1.00, 487.3, 355.0)">я</text><text xml:space="preserve" font-family="TimesNewRomanPSMT" font-size="24.0" fill="#000000" transform="matrix(1.00, 0.00, -0.00, -1.00, 498.4, 355.0)"> </text><text xml:space="preserve" font-family="TimesNewRomanPSMT" font-size="24.0" fill="#000000" transform="matrix(1.00, 0.00, -0.00, -1.00, 504.4, 355.0)">с</text><text xml:space="preserve" font-family="TimesNewRomanPSMT" font-size="24.0" fill="#000000" transform="matrix(1.00, 0.00, -0.00, -1.00, 515.0, 355.0)">д</text><text xml:space="preserve" font-family="TimesNewRomanPSMT" font-size="24.0" fill="#000000" transform="matrix(1.00, 0.00, -0.00, -1.00, 527.2, 355.0)">е</text><text xml:space="preserve" font-family="TimesNewRomanPSMT" font-size="24.0" fill="#000000" transform="matrix(1.00, 0.00, -0.00, -1.00, 537.9, 355.0)">л</text><text xml:space="preserve" font-family="TimesNewRomanPSMT" font-size="24.0" fill="#000000" transform="matrix(1.00, 0.00, -0.00, -1.00, 549.8, 355.0)">о</text><text xml:space="preserve" font-family="TimesNewRomanPSMT" font-size="24.0" fill="#000000" transform="matrix(1.00, 0.00, -0.00, -1.00, 561.8, 355.0)">к</text><text xml:space="preserve" font-family="TimesNewRomanPSMT" font-size="24.0" fill="#000000" transform="matrix(1.00, 0.00, -0.00, -1.00, 573.5, 355.0)"> </text><text xml:space="preserve" font-family="ArialMT" font-size="24.0" fill="#000000" transform="matrix(1.00, 0.00, -0.00, -1.00, 194.3, 319.2)">•</text><text xml:space="preserve" font-family="TimesNewRomanPS-ItalicMT" font-style="italic" font-size="24.0" fill="#000000" transform="matrix(1.00, 0.00, -0.00, -1.00, 221.0, 320.0)">Т</text><text xml:space="preserve" font-family="TimesNewRomanPS-ItalicMT" font-style="italic" font-size="24.0" fill="#000000" transform="matrix(1.00, 0.00, -0.00, -1.00, 233.5, 320.0)">е</text><text xml:space="preserve" font-family="TimesNewRomanPS-ItalicMT" font-style="italic" font-size="24.0" fill="#000000" transform="matrix(1.00, 0.00, -0.00, -1.00, 243.8, 320.0)">х</text><text xml:space="preserve" font-family="TimesNewRomanPS-ItalicMT" font-style="italic" font-size="24.0" fill="#000000" transform="matrix(1.00, 0.00, -0.00, -1.00, 254.5, 320.0)">н</text><text xml:space="preserve" font-family="TimesNewRomanPS-ItalicMT" font-style="italic" font-size="24.0" fill="#000000" transform="matrix(1.00, 0.00, -0.00, -1.00, 266.4, 320.0)">и</text><text xml:space="preserve" font-family="TimesNewRomanPS-ItalicMT" font-style="italic" font-size="24.0" fill="#000000" transform="matrix(1.00, 0.00, -0.00, -1.00, 278.4, 320.0)">ч</text><text xml:space="preserve" font-family="TimesNewRomanPS-ItalicMT" font-style="italic" font-size="24.0" fill="#000000" transform="matrix(1.00, 0.00, -0.00, -1.00, 289.8, 320.0)">е</text><text xml:space="preserve" font-family="TimesNewRomanPS-ItalicMT" font-style="italic" font-size="24.0" fill="#000000" transform="matrix(1.00, 0.00, -0.00, -1.00, 300.2, 320.0)">с</text><text xml:space="preserve" font-family="TimesNewRomanPS-ItalicMT" font-style="italic" font-size="24.0" fill="#000000" transform="matrix(1.00, 0.00, -0.00, -1.00, 310.8, 320.0)">к</text><text xml:space="preserve" font-family="TimesNewRomanPS-ItalicMT" font-style="italic" font-size="24.0" fill="#000000" transform="matrix(1.00, 0.00, -0.00, -1.00, 322.0, 320.0)">и</text><text xml:space="preserve" font-family="TimesNewRomanPS-ItalicMT" font-style="italic" font-size="24.0" fill="#000000" transform="matrix(1.00, 0.00, -0.00, -1.00, 334.0, 320.0)">й</text><text xml:space="preserve" font-family="TimesNewRomanPS-ItalicMT" font-style="italic" font-size="24.0" fill="#000000" transform="matrix(1.00, 0.00, -0.00, -1.00, 346.0, 320.0)"> </text><text xml:space="preserve" font-family="TimesNewRomanPS-ItalicMT" font-style="italic" font-size="24.0" fill="#000000" transform="matrix(1.00, 0.00, -0.00, -1.00, 352.0, 320.0)">а</text><text xml:space="preserve" font-family="TimesNewRomanPS-ItalicMT" font-style="italic" font-size="24.0" fill="#000000" transform="matrix(1.00, 0.00, -0.00, -1.00, 364.0, 320.0)">н</text><text xml:space="preserve" font-family="TimesNewRomanPS-ItalicMT" font-style="italic" font-size="24.0" fill="#000000" transform="matrix(1.00, 0.00, -0.00, -1.00, 375.9, 320.0)">а</text><text xml:space="preserve" font-family="TimesNewRomanPS-ItalicMT" font-style="italic" font-size="24.0" fill="#000000" transform="matrix(1.00, 0.00, -0.00, -1.00, 387.9, 320.0)">л</text><text xml:space="preserve" font-family="TimesNewRomanPS-ItalicMT" font-style="italic" font-size="24.0" fill="#000000" transform="matrix(1.00, 0.00, -0.00, -1.00, 398.4, 320.0)">и</text><text xml:space="preserve" font-family="TimesNewRomanPS-ItalicMT" font-style="italic" font-size="24.0" fill="#000000" transform="matrix(1.00, 0.00, -0.00, -1.00, 410.4, 320.0)">з</text><text xml:space="preserve" font-family="TimesNewRomanPS-ItalicMT" font-style="italic" font-size="24.0" fill="#000000" transform="matrix(1.00, 0.00, -0.00, -1.00, 419.8, 320.0)"> </text><text xml:space="preserve" font-family="TimesNewRomanPS-ItalicMT" font-style="italic" font-size="24.0" fill="#000000" transform="matrix(1.00, 0.00, -0.00, -1.00, 425.8, 320.0)">—</text><text xml:space="preserve" font-family="TimesNewRomanPSMT" font-size="24.0" fill="#000000" transform="matrix(1.00, 0.00, -0.00, -1.00, 447.1, 320.0)"> </text><text xml:space="preserve" font-family="TimesNewRomanPSMT" font-size="24.0" fill="#000000" transform="matrix(1.00, 0.00, -0.00, -1.00, 453.1, 320.0)">п</text><text xml:space="preserve" font-family="TimesNewRomanPSMT" font-size="24.0" fill="#000000" transform="matrix(1.00, 0.00, -0.00, -1.00, 466.0, 320.0)">р</text><text xml:space="preserve" font-family="TimesNewRomanPSMT" font-size="24.0" fill="#000000" transform="matrix(1.00, 0.00, -0.00, -1.00, 478.0, 320.0)">о</text><text xml:space="preserve" font-family="TimesNewRomanPSMT" font-size="24.0" fill="#000000" transform="matrix(1.00, 0.00, -0.00, -1.00, 490.0, 320.0)">г</text><text xml:space="preserve" font-family="TimesNewRomanPSMT" font-size="24.0" fill="#000000" transform="matrix(1.00, 0.00, -0.00, -1.00, 499.8, 320.0)">н</text><text xml:space="preserve" font-family="TimesNewRomanPSMT" font-size="24.0" fill="#000000" transform="matrix(1.00, 0.00, -0.00, -1.00, 512.7, 320.0)">о</text><text xml:space="preserve" font-family="TimesNewRomanPSMT" font-size="24.0" fill="#000000" transform="matrix(1.00, 0.00, -0.00, -1.00, 524.7, 320.0)">з</text><text xml:space="preserve" font-family="TimesNewRomanPSMT" font-size="24.0" fill="#000000" transform="matrix(1.00, 0.00, -0.00, -1.00, 534.1, 320.0)">и</text><text xml:space="preserve" font-family="TimesNewRomanPSMT" font-size="24.0" fill="#000000" transform="matrix(1.00, 0.00, -0.00, -1.00, 547.0, 320.0)">р</text><text xml:space="preserve" font-family="TimesNewRomanPSMT" font-size="24.0" fill="#000000" transform="matrix(1.00, 0.00, -0.00, -1.00, 559.0, 320.0)">о</text><text xml:space="preserve" font-family="TimesNewRomanPSMT" font-size="24.0" fill="#000000" transform="matrix(1.00, 0.00, -0.00, -1.00, 571.0, 320.0)">в</text><text xml:space="preserve" font-family="TimesNewRomanPSMT" font-size="24.0" fill="#000000" transform="matrix(1.00, 0.00, -0.00, -1.00, 582.0, 320.0)">а</text><text xml:space="preserve" font-family="TimesNewRomanPSMT" font-size="24.0" fill="#000000" transform="matrix(1.00, 0.00, -0.00, -1.00, 592.7, 320.0)">н</text><text xml:space="preserve" font-family="TimesNewRomanPSMT" font-size="24.0" fill="#000000" transform="matrix(1.00, 0.00, -0.00, -1.00, 605.5, 320.0)">и</text><text xml:space="preserve" font-family="TimesNewRomanPSMT" font-size="24.0" fill="#000000" transform="matrix(1.00, 0.00, -0.00, -1.00, 618.4, 320.0)">е</text><text xml:space="preserve" font-family="TimesNewRomanPSMT" font-size="24.0" fill="#000000" transform="matrix(1.00, 0.00, -0.00, -1.00, 629.0, 320.0)"> </text><text xml:space="preserve" font-family="TimesNewRomanPSMT" font-size="24.0" fill="#000000" transform="matrix(1.00, 0.00, -0.00, -1.00, 221.0, 293.0)">и</text><text xml:space="preserve" font-family="TimesNewRomanPSMT" font-size="24.0" fill="#000000" transform="matrix(1.00, 0.00, -0.00, -1.00, 233.8, 293.0)">з</text><text xml:space="preserve" font-family="TimesNewRomanPSMT" font-size="24.0" fill="#000000" transform="matrix(1.00, 0.00, -0.00, -1.00, 243.0, 293.0)">м</text><text xml:space="preserve" font-family="TimesNewRomanPSMT" font-size="24.0" fill="#000000" transform="matrix(1.00, 0.00, -0.00, -1.00, 258.2, 293.0)">е</text><text xml:space="preserve" font-family="TimesNewRomanPSMT" font-size="24.0" fill="#000000" transform="matrix(1.00, 0.00, -0.00, -1.00, 268.8, 293.0)">н</text><text xml:space="preserve" font-family="TimesNewRomanPSMT" font-size="24.0" fill="#000000" transform="matrix(1.00, 0.00, -0.00, -1.00, 281.7, 293.0)">е</text><text xml:space="preserve" font-family="TimesNewRomanPSMT" font-size="24.0" fill="#000000" transform="matrix(1.00, 0.00, -0.00, -1.00, 292.3, 293.0)">н</text><text xml:space="preserve" font-family="TimesNewRomanPSMT" font-size="24.0" fill="#000000" transform="matrix(1.00, 0.00, -0.00, -1.00, 305.2, 293.0)">и</text><text xml:space="preserve" font-family="TimesNewRomanPSMT" font-size="24.0" fill="#000000" transform="matrix(1.00, 0.00, -0.00, -1.00, 318.0, 293.0)">й</text><text xml:space="preserve" font-family="TimesNewRomanPSMT" font-size="24.0" fill="#000000" transform="matrix(1.00, 0.00, -0.00, -1.00, 330.9, 293.0)"> </text><text xml:space="preserve" font-family="TimesNewRomanPSMT" font-size="24.0" fill="#000000" transform="matrix(1.00, 0.00, -0.00, -1.00, 336.9, 293.0)">ц</text><text xml:space="preserve" font-family="TimesNewRomanPSMT" font-size="24.0" fill="#000000" transform="matrix(1.00, 0.00, -0.00, -1.00, 349.7, 293.0)">е</text><text xml:space="preserve" font-family="TimesNewRomanPSMT" font-size="24.0" fill="#000000" transform="matrix(1.00, 0.00, -0.00, -1.00, 360.4, 293.0)">н</text><text xml:space="preserve" font-family="TimesNewRomanPSMT" font-size="24.0" fill="#000000" transform="matrix(1.00, 0.00, -0.00, -1.00, 373.2, 293.0)"> </text><text xml:space="preserve" font-family="TimesNewRomanPSMT" font-size="24.0" fill="#000000" transform="matrix(1.00, 0.00, -0.00, -1.00, 379.2, 293.0)">в</text><text xml:space="preserve" font-family="TimesNewRomanPSMT" font-size="24.0" fill="#000000" transform="matrix(1.00, 0.00, -0.00, -1.00, 390.5, 293.0)"> </text><text xml:space="preserve" font-family="TimesNewRomanPSMT" font-size="24.0" fill="#000000" transform="matrix(1.00, 0.00, -0.00, -1.00, 396.5, 293.0)">б</text><text xml:space="preserve" font-family="TimesNewRomanPSMT" font-size="24.0" fill="#000000" transform="matrix(1.00, 0.00, -0.00, -1.00, 407.8, 293.0)">у</text><text xml:space="preserve" font-family="TimesNewRomanPSMT" font-size="24.0" fill="#000000" transform="matrix(1.00, 0.00, -0.00, -1.00, 418.3, 293.0)">д</text><text xml:space="preserve" font-family="TimesNewRomanPSMT" font-size="24.0" fill="#000000" transform="matrix(1.00, 0.00, -0.00, -1.00, 430.5, 293.0)">у</text><text xml:space="preserve" font-family="TimesNewRomanPSMT" font-size="24.0" fill="#000000" transform="matrix(1.00, 0.00, -0.00, -1.00, 442.5, 293.0)">щ</text><text xml:space="preserve" font-family="TimesNewRomanPSMT" font-size="24.0" fill="#000000" transform="matrix(1.00, 0.00, -0.00, -1.00, 461.0, 293.0)">е</text><text xml:space="preserve" font-family="TimesNewRomanPSMT" font-size="24.0" fill="#000000" transform="matrix(1.00, 0.00, -0.00, -1.00, 471.7, 293.0)">м</text><text xml:space="preserve" font-family="TimesNewRomanPSMT" font-size="24.0" fill="#000000" transform="matrix(1.00, 0.00, -0.00, -1.00, 486.8, 293.0)"> </text><text xml:space="preserve" font-family="TimesNewRomanPSMT" font-size="24.0" fill="#000000" transform="matrix(1.00, 0.00, -0.00, -1.00, 492.8, 293.0)">н</text><text xml:space="preserve" font-family="TimesNewRomanPSMT" font-size="24.0" fill="#000000" transform="matrix(1.00, 0.00, -0.00, -1.00, 505.7, 293.0)">а</text><text xml:space="preserve" font-family="TimesNewRomanPSMT" font-size="24.0" fill="#000000" transform="matrix(1.00, 0.00, -0.00, -1.00, 516.3, 293.0)"> </text><text xml:space="preserve" font-family="TimesNewRomanPSMT" font-size="24.0" fill="#000000" transform="matrix(1.00, 0.00, -0.00, -1.00, 522.3, 293.0)">о</text><text xml:space="preserve" font-family="TimesNewRomanPSMT" font-size="24.0" fill="#000000" transform="matrix(1.00, 0.00, -0.00, -1.00, 534.9, 293.0)">с</text><text xml:space="preserve" font-family="TimesNewRomanPSMT" font-size="24.0" fill="#000000" transform="matrix(1.00, 0.00, -0.00, -1.00, 545.6, 293.0)">н</text><text xml:space="preserve" font-family="TimesNewRomanPSMT" font-size="24.0" fill="#000000" transform="matrix(1.00, 0.00, -0.00, -1.00, 558.4, 293.0)">о</text><text xml:space="preserve" font-family="TimesNewRomanPSMT" font-size="24.0" fill="#000000" transform="matrix(1.00, 0.00, -0.00, -1.00, 570.4, 293.0)">в</text><text xml:space="preserve" font-family="TimesNewRomanPSMT" font-size="24.0" fill="#000000" transform="matrix(1.00, 0.00, -0.00, -1.00, 581.6, 293.0)">е</text><text xml:space="preserve" font-family="TimesNewRomanPSMT" font-size="24.0" fill="#000000" transform="matrix(1.00, 0.00, -0.00, -1.00, 592.3, 293.0)"> </text><text xml:space="preserve" font-family="TimesNewRomanPSMT" font-size="24.0" fill="#000000" transform="matrix(1.00, 0.00, -0.00, -1.00, 598.3, 293.0)">а</text><text xml:space="preserve" font-family="TimesNewRomanPSMT" font-size="24.0" fill="#000000" transform="matrix(1.00, 0.00, -0.00, -1.00, 608.9, 293.0)">н</text><text xml:space="preserve" font-family="TimesNewRomanPSMT" font-size="24.0" fill="#000000" transform="matrix(1.00, 0.00, -0.00, -1.00, 621.8, 293.0)">а</text><text xml:space="preserve" font-family="TimesNewRomanPSMT" font-size="24.0" fill="#000000" transform="matrix(1.00, 0.00, -0.00, -1.00, 632.6, 293.0)">л</text><text xml:space="preserve" font-family="TimesNewRomanPSMT" font-size="24.0" fill="#000000" transform="matrix(1.00, 0.00, -0.00, -1.00, 644.6, 293.0)">и</text><text xml:space="preserve" font-family="TimesNewRomanPSMT" font-size="24.0" fill="#000000" transform="matrix(1.00, 0.00, -0.00, -1.00, 657.5, 293.0)">з</text><text xml:space="preserve" font-family="TimesNewRomanPSMT" font-size="24.0" fill="#000000" transform="matrix(1.00, 0.00, -0.00, -1.00, 666.9, 293.0)">а</text><text xml:space="preserve" font-family="TimesNewRomanPSMT" font-size="24.0" fill="#000000" transform="matrix(1.00, 0.00, -0.00, -1.00, 677.6, 293.0)"> </text><text xml:space="preserve" font-family="TimesNewRomanPSMT" font-size="24.0" fill="#000000" transform="matrix(1.00, 0.00, -0.00, -1.00, 221.0, 266.0)">и</text><text xml:space="preserve" font-family="TimesNewRomanPSMT" font-size="24.0" fill="#000000" transform="matrix(1.00, 0.00, -0.00, -1.00, 233.8, 266.0)">з</text><text xml:space="preserve" font-family="TimesNewRomanPSMT" font-size="24.0" fill="#000000" transform="matrix(1.00, 0.00, -0.00, -1.00, 243.0, 266.0)">м</text><text xml:space="preserve" font-family="TimesNewRomanPSMT" font-size="24.0" fill="#000000" transform="matrix(1.00, 0.00, -0.00, -1.00, 258.2, 266.0)">е</text><text xml:space="preserve" font-family="TimesNewRomanPSMT" font-size="24.0" fill="#000000" transform="matrix(1.00, 0.00, -0.00, -1.00, 268.8, 266.0)">н</text><text xml:space="preserve" font-family="TimesNewRomanPSMT" font-size="24.0" fill="#000000" transform="matrix(1.00, 0.00, -0.00, -1.00, 281.7, 266.0)">е</text><text xml:space="preserve" font-family="TimesNewRomanPSMT" font-size="24.0" fill="#000000" transform="matrix(1.00, 0.00, -0.00, -1.00, 292.3, 266.0)">н</text><text xml:space="preserve" font-family="TimesNewRomanPSMT" font-size="24.0" fill="#000000" transform="matrix(1.00, 0.00, -0.00, -1.00, 305.2, 266.0)">и</text><text xml:space="preserve" font-family="TimesNewRomanPSMT" font-size="24.0" fill="#000000" transform="matrix(1.00, 0.00, -0.00, -1.00, 318.0, 266.0)">й</text><text xml:space="preserve" font-family="TimesNewRomanPSMT" font-size="24.0" fill="#000000" transform="matrix(1.00, 0.00, -0.00, -1.00, 330.9, 266.0)"> </text><text xml:space="preserve" font-family="TimesNewRomanPSMT" font-size="24.0" fill="#000000" transform="matrix(1.00, 0.00, -0.00, -1.00, 336.9, 266.0)">ц</text><text xml:space="preserve" font-family="TimesNewRomanPSMT" font-size="24.0" fill="#000000" transform="matrix(1.00, 0.00, -0.00, -1.00, 349.7, 266.0)">е</text><text xml:space="preserve" font-family="TimesNewRomanPSMT" font-size="24.0" fill="#000000" transform="matrix(1.00, 0.00, -0.00, -1.00, 360.4, 266.0)">н</text><text xml:space="preserve" font-family="TimesNewRomanPSMT" font-size="24.0" fill="#000000" transform="matrix(1.00, 0.00, -0.00, -1.00, 373.2, 266.0)"> </text><text xml:space="preserve" font-family="TimesNewRomanPSMT" font-size="24.0" fill="#000000" transform="matrix(1.00, 0.00, -0.00, -1.00, 379.2, 266.0)">в</text><text xml:space="preserve" font-family="TimesNewRomanPSMT" font-size="24.0" fill="#000000" transform="matrix(1.00, 0.00, -0.00, -1.00, 390.5, 266.0)"> </text><text xml:space="preserve" font-family="TimesNewRomanPSMT" font-size="24.0" fill="#000000" transform="matrix(1.00, 0.00, -0.00, -1.00, 396.5, 266.0)">п</text><text xml:space="preserve" font-family="TimesNewRomanPSMT" font-size="24.0" fill="#000000" transform="matrix(1.00, 0.00, -0.00, -1.00, 409.4, 266.0)">р</text><text xml:space="preserve" font-family="TimesNewRomanPSMT" font-size="24.0" fill="#000000" transform="matrix(1.00, 0.00, -0.00, -1.00, 421.4, 266.0)">о</text><text xml:space="preserve" font-family="TimesNewRomanPSMT" font-size="24.0" fill="#000000" transform="matrix(1.00, 0.00, -0.00, -1.00, 433.4, 266.0)">ш</text><text xml:space="preserve" font-family="TimesNewRomanPSMT" font-size="24.0" fill="#000000" transform="matrix(1.00, 0.00, -0.00, -1.00, 451.9, 266.0)">л</text><text xml:space="preserve" font-family="TimesNewRomanPSMT" font-size="24.0" fill="#000000" transform="matrix(1.00, 0.00, -0.00, -1.00, 463.8, 266.0)">о</text><text xml:space="preserve" font-family="TimesNewRomanPSMT" font-size="24.0" fill="#000000" transform="matrix(1.00, 0.00, -0.00, -1.00, 475.4, 266.0)">м</text><text xml:space="preserve" font-family="TimesNewRomanPSMT" font-size="24.0" fill="#000000" transform="matrix(1.00, 0.00, -0.00, -1.00, 490.6, 266.0)"> </text><text xml:space="preserve" font-family="ArialMT" font-size="24.0" fill="#000000" transform="matrix(1.00, 0.00, -0.00, -1.00, 194.3, 230.5)">•</text><text xml:space="preserve" font-family="TimesNewRomanPSMT" font-size="24.0" fill="#000000" transform="matrix(1.00, 0.00, -0.00, -1.00, 221.0, 231.0)">З</text><text xml:space="preserve" font-family="TimesNewRomanPSMT" font-size="24.0" fill="#000000" transform="matrix(1.00, 0.00, -0.00, -1.00, 233.0, 231.0)">а</text><text xml:space="preserve" font-family="TimesNewRomanPSMT" font-size="24.0" fill="#000000" transform="matrix(1.00, 0.00, -0.00, -1.00, 242.7, 231.0)">ч</text><text xml:space="preserve" font-family="TimesNewRomanPSMT" font-size="24.0" fill="#000000" transform="matrix(1.00, 0.00, -0.00, -1.00, 254.8, 231.0)">а</text><text xml:space="preserve" font-family="TimesNewRomanPSMT" font-size="24.0" fill="#000000" transform="matrix(1.00, 0.00, -0.00, -1.00, 265.4, 231.0)">с</text><text xml:space="preserve" font-family="TimesNewRomanPSMT" font-size="24.0" fill="#000000" transform="matrix(1.00, 0.00, -0.00, -1.00, 276.1, 231.0)">т</text><text xml:space="preserve" font-family="TimesNewRomanPSMT" font-size="24.0" fill="#000000" transform="matrix(1.00, 0.00, -0.00, -1.00, 286.2, 231.0)">у</text><text xml:space="preserve" font-family="TimesNewRomanPSMT" font-size="24.0" fill="#000000" transform="matrix(1.00, 0.00, -0.00, -1.00, 298.2, 231.0)">ю</text><text xml:space="preserve" font-family="TimesNewRomanPSMT" font-size="24.0" fill="#000000" transform="matrix(1.00, 0.00, -0.00, -1.00, 316.2, 231.0)"> </text><text xml:space="preserve" font-family="TimesNewRomanPS-ItalicMT" font-style="italic" font-size="24.0" fill="#000000" transform="matrix(1.00, 0.00, -0.00, -1.00, 322.2, 231.0)">т</text><text xml:space="preserve" font-family="TimesNewRomanPS-ItalicMT" font-style="italic" font-size="24.0" fill="#000000" transform="matrix(1.00, 0.00, -0.00, -1.00, 339.5, 231.0)">о</text><text xml:space="preserve" font-family="TimesNewRomanPS-ItalicMT" font-style="italic" font-size="24.0" fill="#000000" transform="matrix(1.00, 0.00, -0.00, -1.00, 351.5, 231.0)">р</text><text xml:space="preserve" font-family="TimesNewRomanPS-ItalicMT" font-style="italic" font-size="24.0" fill="#000000" transform="matrix(1.00, 0.00, -0.00, -1.00, 363.5, 231.0)">г</text><text xml:space="preserve" font-family="TimesNewRomanPS-ItalicMT" font-style="italic" font-size="24.0" fill="#000000" transform="matrix(1.00, 0.00, -0.00, -1.00, 372.9, 231.0)">о</text><text xml:space="preserve" font-family="TimesNewRomanPS-ItalicMT" font-style="italic" font-size="24.0" fill="#000000" transform="matrix(1.00, 0.00, -0.00, -1.00, 384.9, 231.0)">в</text><text xml:space="preserve" font-family="TimesNewRomanPS-ItalicMT" font-style="italic" font-size="24.0" fill="#000000" transform="matrix(1.00, 0.00, -0.00, -1.00, 395.0, 231.0)">о</text><text xml:space="preserve" font-family="TimesNewRomanPS-ItalicMT" font-style="italic" font-size="24.0" fill="#000000" transform="matrix(1.00, 0.00, -0.00, -1.00, 407.0, 231.0)">е</text><text xml:space="preserve" font-family="TimesNewRomanPS-ItalicMT" font-style="italic" font-size="24.0" fill="#000000" transform="matrix(1.00, 0.00, -0.00, -1.00, 417.6, 231.0)"> </text><text xml:space="preserve" font-family="TimesNewRomanPS-ItalicMT" font-style="italic" font-size="24.0" fill="#000000" transform="matrix(1.00, 0.00, -0.00, -1.00, 423.6, 231.0)">п</text><text xml:space="preserve" font-family="TimesNewRomanPS-ItalicMT" font-style="italic" font-size="24.0" fill="#000000" transform="matrix(1.00, 0.00, -0.00, -1.00, 435.6, 231.0)">р</text><text xml:space="preserve" font-family="TimesNewRomanPS-ItalicMT" font-style="italic" font-size="24.0" fill="#000000" transform="matrix(1.00, 0.00, -0.00, -1.00, 447.6, 231.0)">а</text><text xml:space="preserve" font-family="TimesNewRomanPS-ItalicMT" font-style="italic" font-size="24.0" fill="#000000" transform="matrix(1.00, 0.00, -0.00, -1.00, 459.6, 231.0)">в</text><text xml:space="preserve" font-family="TimesNewRomanPS-ItalicMT" font-style="italic" font-size="24.0" fill="#000000" transform="matrix(1.00, 0.00, -0.00, -1.00, 470.1, 231.0)">и</text><text xml:space="preserve" font-family="TimesNewRomanPS-ItalicMT" font-style="italic" font-size="24.0" fill="#000000" transform="matrix(1.00, 0.00, -0.00, -1.00, 482.1, 231.0)">л</text><text xml:space="preserve" font-family="TimesNewRomanPS-ItalicMT" font-style="italic" font-size="24.0" fill="#000000" transform="matrix(1.00, 0.00, -0.00, -1.00, 492.8, 231.0)">о</text><text xml:space="preserve" font-family="TimesNewRomanPSMT" font-size="24.0" fill="#000000" transform="matrix(1.00, 0.00, -0.00, -1.00, 504.8, 231.0)"> </text><text xml:space="preserve" font-family="TimesNewRomanPSMT" font-size="24.0" fill="#000000" transform="matrix(1.00, 0.00, -0.00, -1.00, 510.8, 231.0)">—</text><text xml:space="preserve" font-family="TimesNewRomanPSMT" font-size="24.0" fill="#000000" transform="matrix(1.00, 0.00, -0.00, -1.00, 534.8, 231.0)"> </text><text xml:space="preserve" font-family="TimesNewRomanPSMT" font-size="24.0" fill="#000000" transform="matrix(1.00, 0.00, -0.00, -1.00, 540.8, 231.0)">к</text><text xml:space="preserve" font-family="TimesNewRomanPSMT" font-size="24.0" fill="#000000" transform="matrix(1.00, 0.00, -0.00, -1.00, 551.3, 231.0)">о</text><text xml:space="preserve" font-family="TimesNewRomanPSMT" font-size="24.0" fill="#000000" transform="matrix(1.00, 0.00, -0.00, -1.00, 562.8, 231.0)">м</text><text xml:space="preserve" font-family="TimesNewRomanPSMT" font-size="24.0" fill="#000000" transform="matrix(1.00, 0.00, -0.00, -1.00, 578.0, 231.0)">б</text><text xml:space="preserve" font-family="TimesNewRomanPSMT" font-size="24.0" fill="#000000" transform="matrix(1.00, 0.00, -0.00, -1.00, 590.2, 231.0)">и</text><text xml:space="preserve" font-family="TimesNewRomanPSMT" font-size="24.0" fill="#000000" transform="matrix(1.00, 0.00, -0.00, -1.00, 603.0, 231.0)">н</text><text xml:space="preserve" font-family="TimesNewRomanPSMT" font-size="24.0" fill="#000000" transform="matrix(1.00, 0.00, -0.00, -1.00, 615.9, 231.0)">а</text><text xml:space="preserve" font-family="TimesNewRomanPSMT" font-size="24.0" fill="#000000" transform="matrix(1.00, 0.00, -0.00, -1.00, 626.5, 231.0)">ц</text><text xml:space="preserve" font-family="TimesNewRomanPSMT" font-size="24.0" fill="#000000" transform="matrix(1.00, 0.00, -0.00, -1.00, 639.4, 231.0)">и</text><text xml:space="preserve" font-family="TimesNewRomanPSMT" font-size="24.0" fill="#000000" transform="matrix(1.00, 0.00, -0.00, -1.00, 652.2, 231.0)">я</text><text xml:space="preserve" font-family="TimesNewRomanPSMT" font-size="24.0" fill="#000000" transform="matrix(1.00, 0.00, -0.00, -1.00, 663.3, 231.0)"> </text><text xml:space="preserve" font-family="TimesNewRomanPSMT" font-size="24.0" fill="#000000" transform="matrix(1.00, 0.00, -0.00, -1.00, 221.0, 204.0)">и</text><text xml:space="preserve" font-family="TimesNewRomanPSMT" font-size="24.0" fill="#000000" transform="matrix(1.00, 0.00, -0.00, -1.00, 233.8, 204.0)">з</text><text xml:space="preserve" font-family="TimesNewRomanPSMT" font-size="24.0" fill="#000000" transform="matrix(1.00, 0.00, -0.00, -1.00, 243.3, 204.0)"> </text><text xml:space="preserve" font-family="TimesNewRomanPSMT" font-size="24.0" fill="#000000" transform="matrix(1.00, 0.00, -0.00, -1.00, 249.3, 204.0)">т</text><text xml:space="preserve" font-family="TimesNewRomanPSMT" font-size="24.0" fill="#000000" transform="matrix(1.00, 0.00, -0.00, -1.00, 259.8, 204.0)">е</text><text xml:space="preserve" font-family="TimesNewRomanPSMT" font-size="24.0" fill="#000000" transform="matrix(1.00, 0.00, -0.00, -1.00, 270.2, 204.0)">х</text><text xml:space="preserve" font-family="TimesNewRomanPSMT" font-size="24.0" fill="#000000" transform="matrix(1.00, 0.00, -0.00, -1.00, 282.2, 204.0)">н</text><text xml:space="preserve" font-family="TimesNewRomanPSMT" font-size="24.0" fill="#000000" transform="matrix(1.00, 0.00, -0.00, -1.00, 295.0, 204.0)">и</text><text xml:space="preserve" font-family="TimesNewRomanPSMT" font-size="24.0" fill="#000000" transform="matrix(1.00, 0.00, -0.00, -1.00, 307.8, 204.0)">ч</text><text xml:space="preserve" font-family="TimesNewRomanPSMT" font-size="24.0" fill="#000000" transform="matrix(1.00, 0.00, -0.00, -1.00, 319.9, 204.0)">е</text><text xml:space="preserve" font-family="TimesNewRomanPSMT" font-size="24.0" fill="#000000" transform="matrix(1.00, 0.00, -0.00, -1.00, 331.2, 204.0)">с</text><text xml:space="preserve" font-family="TimesNewRomanPSMT" font-size="24.0" fill="#000000" transform="matrix(1.00, 0.00, -0.00, -1.00, 341.8, 204.0)">к</text><text xml:space="preserve" font-family="TimesNewRomanPSMT" font-size="24.0" fill="#000000" transform="matrix(1.00, 0.00, -0.00, -1.00, 352.2, 204.0)">о</text><text xml:space="preserve" font-family="TimesNewRomanPSMT" font-size="24.0" fill="#000000" transform="matrix(1.00, 0.00, -0.00, -1.00, 364.2, 204.0)">г</text><text xml:space="preserve" font-family="TimesNewRomanPSMT" font-size="24.0" fill="#000000" transform="matrix(1.00, 0.00, -0.00, -1.00, 373.5, 204.0)">о</text><text xml:space="preserve" font-family="TimesNewRomanPSMT" font-size="24.0" fill="#000000" transform="matrix(1.00, 0.00, -0.00, -1.00, 385.5, 204.0)"> </text><text xml:space="preserve" font-family="TimesNewRomanPSMT" font-size="24.0" fill="#000000" transform="matrix(1.00, 0.00, -0.00, -1.00, 391.5, 204.0)">и</text><text xml:space="preserve" font-family="TimesNewRomanPSMT" font-size="24.0" fill="#000000" transform="matrix(1.00, 0.00, -0.00, -1.00, 404.3, 204.0)">н</text><text xml:space="preserve" font-family="TimesNewRomanPSMT" font-size="24.0" fill="#000000" transform="matrix(1.00, 0.00, -0.00, -1.00, 417.2, 204.0)">д</text><text xml:space="preserve" font-family="TimesNewRomanPSMT" font-size="24.0" fill="#000000" transform="matrix(1.00, 0.00, -0.00, -1.00, 429.4, 204.0)">и</text><text xml:space="preserve" font-family="TimesNewRomanPSMT" font-size="24.0" fill="#000000" transform="matrix(1.00, 0.00, -0.00, -1.00, 442.3, 204.0)">к</text><text xml:space="preserve" font-family="TimesNewRomanPSMT" font-size="24.0" fill="#000000" transform="matrix(1.00, 0.00, -0.00, -1.00, 453.5, 204.0)">а</text><text xml:space="preserve" font-family="TimesNewRomanPSMT" font-size="24.0" fill="#000000" transform="matrix(1.00, 0.00, -0.00, -1.00, 463.6, 204.0)">т</text><text xml:space="preserve" font-family="TimesNewRomanPSMT" font-size="24.0" fill="#000000" transform="matrix(1.00, 0.00, -0.00, -1.00, 473.7, 204.0)">о</text><text xml:space="preserve" font-family="TimesNewRomanPSMT" font-size="24.0" fill="#000000" transform="matrix(1.00, 0.00, -0.00, -1.00, 485.7, 204.0)">р</text><text xml:space="preserve" font-family="TimesNewRomanPSMT" font-size="24.0" fill="#000000" transform="matrix(1.00, 0.00, -0.00, -1.00, 497.7, 204.0)">а</text><text xml:space="preserve" font-family="TimesNewRomanPSMT" font-size="24.0" fill="#000000" transform="matrix(1.00, 0.00, -0.00, -1.00, 508.4, 204.0)"> </text><text xml:space="preserve" font-family="TimesNewRomanPSMT" font-size="24.0" fill="#000000" transform="matrix(1.00, 0.00, -0.00, -1.00, 514.4, 204.0)">и</text><text xml:space="preserve" font-family="TimesNewRomanPSMT" font-size="24.0" fill="#000000" transform="matrix(1.00, 0.00, -0.00, -1.00, 527.2, 204.0)"> </text><text xml:space="preserve" font-family="TimesNewRomanPSMT" font-size="24.0" fill="#000000" transform="matrix(1.00, 0.00, -0.00, -1.00, 221.0, 177.0)">о</text><text xml:space="preserve" font-family="TimesNewRomanPSMT" font-size="24.0" fill="#000000" transform="matrix(1.00, 0.00, -0.00, -1.00, 233.0, 177.0)">п</text><text xml:space="preserve" font-family="TimesNewRomanPSMT" font-size="24.0" fill="#000000" transform="matrix(1.00, 0.00, -0.00, -1.00, 245.8, 177.0)">р</text><text xml:space="preserve" font-family="TimesNewRomanPSMT" font-size="24.0" fill="#000000" transform="matrix(1.00, 0.00, -0.00, -1.00, 257.8, 177.0)">е</text><text xml:space="preserve" font-family="TimesNewRomanPSMT" font-size="24.0" fill="#000000" transform="matrix(1.00, 0.00, -0.00, -1.00, 268.2, 177.0)">д</text><text xml:space="preserve" font-family="TimesNewRomanPSMT" font-size="24.0" fill="#000000" transform="matrix(1.00, 0.00, -0.00, -1.00, 280.4, 177.0)">е</text><text xml:space="preserve" font-family="TimesNewRomanPSMT" font-size="24.0" fill="#000000" transform="matrix(1.00, 0.00, -0.00, -1.00, 291.0, 177.0)">л</text><text xml:space="preserve" font-family="TimesNewRomanPSMT" font-size="24.0" fill="#000000" transform="matrix(1.00, 0.00, -0.00, -1.00, 303.0, 177.0)">е</text><text xml:space="preserve" font-family="TimesNewRomanPSMT" font-size="24.0" fill="#000000" transform="matrix(1.00, 0.00, -0.00, -1.00, 313.7, 177.0)">н</text><text xml:space="preserve" font-family="TimesNewRomanPSMT" font-size="24.0" fill="#000000" transform="matrix(1.00, 0.00, -0.00, -1.00, 326.5, 177.0)">н</text><text xml:space="preserve" font-family="TimesNewRomanPSMT" font-size="24.0" fill="#000000" transform="matrix(1.00, 0.00, -0.00, -1.00, 339.4, 177.0)">о</text><text xml:space="preserve" font-family="TimesNewRomanPSMT" font-size="24.0" fill="#000000" transform="matrix(1.00, 0.00, -0.00, -1.00, 351.4, 177.0)">г</text><text xml:space="preserve" font-family="TimesNewRomanPSMT" font-size="24.0" fill="#000000" transform="matrix(1.00, 0.00, -0.00, -1.00, 360.6, 177.0)">о</text><text xml:space="preserve" font-family="TimesNewRomanPSMT" font-size="24.0" fill="#000000" transform="matrix(1.00, 0.00, -0.00, -1.00, 372.6, 177.0)"> </text><text xml:space="preserve" font-family="TimesNewRomanPSMT" font-size="24.0" fill="#000000" transform="matrix(1.00, 0.00, -0.00, -1.00, 378.6, 177.0)">з</text><text xml:space="preserve" font-family="TimesNewRomanPSMT" font-size="24.0" fill="#000000" transform="matrix(1.00, 0.00, -0.00, -1.00, 388.1, 177.0)">н</text><text xml:space="preserve" font-family="TimesNewRomanPSMT" font-size="24.0" fill="#000000" transform="matrix(1.00, 0.00, -0.00, -1.00, 400.9, 177.0)">а</text><text xml:space="preserve" font-family="TimesNewRomanPSMT" font-size="24.0" fill="#000000" transform="matrix(1.00, 0.00, -0.00, -1.00, 410.6, 177.0)">ч</text><text xml:space="preserve" font-family="TimesNewRomanPSMT" font-size="24.0" fill="#000000" transform="matrix(1.00, 0.00, -0.00, -1.00, 422.7, 177.0)">е</text><text xml:space="preserve" font-family="TimesNewRomanPSMT" font-size="24.0" fill="#000000" transform="matrix(1.00, 0.00, -0.00, -1.00, 433.3, 177.0)">н</text><text xml:space="preserve" font-family="TimesNewRomanPSMT" font-size="24.0" fill="#000000" transform="matrix(1.00, 0.00, -0.00, -1.00, 446.2, 177.0)">и</text><text xml:space="preserve" font-family="TimesNewRomanPSMT" font-size="24.0" fill="#000000" transform="matrix(1.00, 0.00, -0.00, -1.00, 459.0, 177.0)">я</text><text xml:space="preserve" font-family="TimesNewRomanPSMT" font-size="24.0" fill="#000000" transform="matrix(1.00, 0.00, -0.00, -1.00, 470.1, 177.0)">.</text><text xml:space="preserve" font-family="TrebuchetMS" font-size="12.0" fill="#878787" transform="matrix(1.00, 0.00, -0.00, -1.00, 40.0, 14.0)">2</text><image xlink:href="../../9F71FDD0-7D0B-48C6-983A-900A1F72ECDE/assets/71CE3705D7BA36D0F47406DE15B3F794.png" width="137.00" height="94.00" transform="matrix(0.99, 0.00, -0.00, -1.00, 37.0, 403.0)"></image><image xlink:href="../../9F71FDD0-7D0B-48C6-983A-900A1F72ECDE/assets/0FE5E1CCE2F7DEA8D8CE8EFC65AE4106.jpeg" width="137.00" height="76.00" transform="matrix(0.99, 0.00, -0.00, -1.00, 37.0, 253.0)"></image></g></svg>